<svg xmlns="http://www.w3.org/2000/svg" xmlns:xlink="http://www.w3.org/1999/xlink" width="32px" height="28px" viewBox="0 0 32 28" version="1.1">
    <defs>
        <linearGradient id="linearGradient-1" x1="50%" y1="11.71875%" x2="71.0845269%" y2="68.2274804%">
            <stop stop-color="#FFFFFF" offset="0%"/>
            <stop stop-color="#F2F8FE" offset="100%"/>
        </linearGradient>
    </defs>
    <title>send</title>
    <g id="页面-1" stroke="none" stroke-width="1" fill="none" fill-rule="evenodd">
        <g id="3.0-model-hub---默认" transform="translate(0.000000, 0.000000)">
            <g id="编组-15">
                <rect id="矩形备份" fill="url(#linearGradient-1)" width="32" height="28"/>
                <g id="send" transform="translate(8, 7)">
                    <rect id="矩形" opacity="0" x="0" y="0" width="14" height="14"/>
                    <path d="M12.7339844,6.82089844 L1.29746094,1.08691406 C1.25097656,1.06367188 1.19765625,1.05820313 1.14707031,1.07050781 C1.03085937,1.09921875 0.958398437,1.21679688 0.987109375,1.334375 L2.165625,6.14960937 C2.18339844,6.22207031 2.23671875,6.28085937 2.3078125,6.30410156 L4.32714844,6.99726562 L2.30917969,7.69042969 C2.23808594,7.71503906 2.18476562,7.77246094 2.16835937,7.84492187 L0.987109375,12.6669922 C0.974804687,12.7175781 0.980273437,12.7708984 1.00351562,12.8160156 C1.05683594,12.9240234 1.18808594,12.9677734 1.29746094,12.9144531 L12.7339844,7.21328125 C12.7763672,7.19277344 12.8105469,7.15722656 12.8324219,7.11621094 C12.8857422,7.00683594 12.8419922,6.87558594 12.7339844,6.82089844 Z M2.33515625,11.2970703 L3.02285156,8.48613281 L7.05878906,7.10117188 C7.09023437,7.09023438 7.11621094,7.065625 7.12714844,7.0328125 C7.14628906,6.97539063 7.11621094,6.91386719 7.05878906,6.89335938 L3.02285156,5.50976563 L2.33789062,2.70976563 L10.9238281,7.01503906 L2.33515625,11.2970703 Z" fill="#6366F1"/>
                </g>
            </g>
        </g>
    </g>
</svg>
