<?xml version="1.0" encoding="iso-8859-1"?>
<!-- Generator: Adobe Illustrator 16.0.0, SVG Export Plug-In . SVG Version: 6.00 Build 0)  -->
<!DOCTYPE svg PUBLIC "-//W3C//DTD SVG 1.1//EN" "http://www.w3.org/Graphics/SVG/1.1/DTD/svg11.dtd">
<svg xmlns="http://www.w3.org/2000/svg" xmlns:xlink="http://www.w3.org/1999/xlink" version="1.1" id="Capa_1" x="0px" y="0px" width="512px" height="512px" viewBox="0 0 97.968 97.968" style="enable-background:new 0 0 97.968 97.968;" xml:space="preserve">
<g>
	<g>
		<path d="M49.541,38.655c1.617,0,3.158,0.338,4.559,0.946c0.105-2.286,0.893-4.4,2.157-6.15c-0.89-0.186-1.808-0.285-2.748-0.285    h-8.906c-0.938,0-1.856,0.098-2.739,0.282c1.347,1.869,2.152,4.15,2.165,6.62C45.666,39.168,47.544,38.655,49.541,38.655z" fill="#ea5e5e"/>
		<circle cx="49.054" cy="21.954" r="10.496" fill="#ea5e5e"/>
		<path d="M65.539,50.36c5.342,0,9.67-4.33,9.67-9.67c0-5.342-4.328-9.67-9.67-9.67c-5.292,0-9.583,4.251-9.663,9.524    c3.049,1.912,5.187,5.146,5.577,8.9C62.695,50.026,64.076,50.36,65.539,50.36z" fill="#ea5e5e"/>
		<path d="M32.571,31.019c-5.343,0-9.671,4.329-9.671,9.67s4.328,9.669,9.671,9.669c1.892,0,3.651-0.553,5.143-1.492    c0.475-3.091,2.132-5.794,4.499-7.634c0.01-0.181,0.027-0.36,0.027-0.543C42.24,35.348,37.91,31.019,32.571,31.019z" fill="#ea5e5e"/>
		<path d="M71.82,30.813c3.049,1.912,5.187,5.146,5.576,8.901c1.241,0.581,2.623,0.916,4.086,0.916c5.342,0,9.67-4.329,9.67-9.67    c0-5.341-4.328-9.67-9.67-9.67C76.191,21.289,71.9,25.541,71.82,30.813z" fill="#ea5e5e"/>
		<circle cx="49.541" cy="50.673" r="9.671" fill="#ea5e5e"/>
		<path d="M69.643,51.019h-8.144c-0.089,3.258-1.479,6.192-3.679,8.301c6.068,1.806,10.509,7.434,10.509,14.082v3.092    c8.04-0.297,12.674-2.573,12.979-2.729l0.646-0.328h0.067V63.401C82.023,56.573,76.469,51.019,69.643,51.019z" fill="#ea5e5e"/>
		<path d="M85.585,41.289h-8.142c-0.088,3.258-1.479,6.192-3.678,8.301c6.068,1.806,10.508,7.433,10.508,14.081v3.092    c8.039-0.296,12.674-2.572,12.979-2.729l0.646-0.327h0.069V53.671C97.967,46.844,92.413,41.289,85.585,41.289z" fill="#ea5e5e"/>
		<path d="M41.256,59.319c-2.189-2.099-3.575-5.017-3.677-8.254c-0.301-0.022-0.6-0.047-0.908-0.047h-8.203    c-6.828,0-12.383,5.555-12.383,12.383v10.037l0.025,0.155l0.691,0.218c5.227,1.633,9.893,2.383,13.944,2.621v-3.031    C30.747,66.754,35.186,61.126,41.256,59.319z" fill="#ea5e5e"/>
		<path d="M53.643,61.003h-8.206c-6.828,0-12.383,5.557-12.383,12.382v10.037l0.026,0.157l0.69,0.216    c6.516,2.035,12.177,2.715,16.835,2.715c9.101,0,14.375-2.595,14.701-2.76l0.646-0.328h0.068V73.385    C66.023,66.558,60.469,61.003,53.643,61.003z" fill="#ea5e5e"/>
		<path d="M16.486,40.938c1.463,0,2.844-0.335,4.086-0.916c0.39-3.755,2.527-6.99,5.576-8.902c-0.08-5.271-4.371-9.523-9.662-9.523    c-5.343,0-9.671,4.329-9.671,9.671C6.815,36.609,11.143,40.938,16.486,40.938z" fill="#ea5e5e"/>
		<path d="M24.202,49.899c-2.198-2.109-3.589-5.044-3.677-8.303h-8.143C5.554,41.597,0,47.152,0,53.979v10.037h0.069l0.646,0.327    c0.306,0.154,4.939,2.433,12.979,2.728v-3.092C13.694,57.332,18.133,51.704,24.202,49.899z" fill="#ea5e5e"/>
		<path d="M27.796,30.063c1.16-0.47,2.93-1.047,4.62-1.047c1.967,0,3.891,0.506,5.607,1.469c0.382-0.375,0.732-0.783,1.05-1.22    c-1.63-2.141-2.52-4.765-2.52-7.464c0-1.818,0.406-3.622,1.18-5.261c-1.762-1.592-4.01-2.461-6.399-2.461    c-4.348,0-8.133,2.943-9.241,7.088C25.341,23.057,27.457,26.361,27.796,30.063z" fill="#ea5e5e"/>
		<path d="M59.117,28.718c0.336,0.534,0.729,1.037,1.175,1.505c1.588-0.792,3.334-1.208,5.092-1.208    c1.729,0,3.386,0.442,4.472,0.812c0.34-4.013,2.767-7.555,6.4-9.35c-1.332-3.805-4.938-6.402-9.021-6.402    c-2.64,0-5.14,1.084-6.945,2.992c0.634,1.512,0.955,3.101,0.955,4.73C61.244,24.292,60.51,26.67,59.117,28.718z" fill="#ea5e5e"/>
	</g>
</g>
<g>
</g>
<g>
</g>
<g>
</g>
<g>
</g>
<g>
</g>
<g>
</g>
<g>
</g>
<g>
</g>
<g>
</g>
<g>
</g>
<g>
</g>
<g>
</g>
<g>
</g>
<g>
</g>
<g>
</g>
</svg>
