<?xml version="1.0" encoding="iso-8859-1"?>
<!-- Generator: Adobe Illustrator 19.0.0, SVG Export Plug-In . SVG Version: 6.00 Build 0)  -->
<svg xmlns="http://www.w3.org/2000/svg" xmlns:xlink="http://www.w3.org/1999/xlink" version="1.1" id="Capa_1" x="0px" y="0px" viewBox="0 0 60 60" style="enable-background:new 0 0 60 60;" xml:space="preserve" width="512px" height="512px">
<g>
	<path d="M56.954,1H3.046C1.366,1,0,2.366,0,4.046V18.01c0,0.553,0.447,1,1,1h2V53v5c0,0.553,0.447,1,1,1h52c0.553,0,1-0.447,1-1v-5   V19.01h2c0.553,0,1-0.447,1-1V4.046C60,2.366,58.634,1,56.954,1z M55,57H5v-3h50V57z M55,52H5V19.01h50V52z M58,17.01h-2H4H2V4.046   C2,3.469,2.469,3,3.046,3h53.908C57.531,3,58,3.469,58,4.046V17.01z" fill="#933EC5"/>
	<path d="M16,41h28c0.553,0,1-0.447,1-1V26c0-0.553-0.447-1-1-1H16c-0.553,0-1,0.447-1,1v14C15,40.553,15.447,41,16,41z M17,27h26   v12H17V27z" fill="#933EC5"/>
	<path d="M20,32h6c0.553,0,1-0.447,1-1s-0.447-1-1-1h-6c-0.553,0-1,0.447-1,1S19.447,32,20,32z" fill="#933EC5"/>
	<path d="M30,32c0.26,0,0.52-0.11,0.71-0.29C30.89,31.52,31,31.26,31,31c0-0.261-0.11-0.521-0.29-0.71c-0.38-0.37-1.05-0.37-1.42,0   C29.109,30.479,29,30.739,29,31c0,0.27,0.109,0.52,0.29,0.71C29.479,31.89,29.729,32,30,32z" fill="#933EC5"/>
	<path d="M40,34H24c-0.553,0-1,0.447-1,1s0.447,1,1,1h16c0.553,0,1-0.447,1-1S40.553,34,40,34z" fill="#933EC5"/>
	<path d="M19.29,34.29C19.109,34.479,19,34.739,19,35c0,0.26,0.109,0.52,0.29,0.71C19.479,35.89,19.729,36,20,36   c0.27,0,0.52-0.11,0.71-0.29C20.89,35.52,21,35.26,21,35c0-0.261-0.11-0.521-0.29-0.71C20.34,33.92,19.67,33.92,19.29,34.29z" fill="#933EC5"/>
	<path d="M39,5.01H21c-2.757,0-5,2.243-5,5s2.243,5,5,5h18c2.757,0,5-2.243,5-5S41.757,5.01,39,5.01z M39,13.01H21   c-1.654,0-3-1.346-3-3s1.346-3,3-3h18c1.654,0,3,1.346,3,3S40.654,13.01,39,13.01z" fill="#933EC5"/>
</g>
<g>
</g>
<g>
</g>
<g>
</g>
<g>
</g>
<g>
</g>
<g>
</g>
<g>
</g>
<g>
</g>
<g>
</g>
<g>
</g>
<g>
</g>
<g>
</g>
<g>
</g>
<g>
</g>
<g>
</g>
</svg>
