<?xml version="1.0" encoding="iso-8859-1"?>
<!-- Generator: Adobe Illustrator 18.0.0, SVG Export Plug-In . SVG Version: 6.00 Build 0)  -->
<!DOCTYPE svg PUBLIC "-//W3C//DTD SVG 1.1//EN" "http://www.w3.org/Graphics/SVG/1.1/DTD/svg11.dtd">
<svg xmlns="http://www.w3.org/2000/svg" xmlns:xlink="http://www.w3.org/1999/xlink" version="1.1" id="Capa_1" x="0px" y="0px" viewBox="0 0 493.595 493.595" style="enable-background:new 0 0 493.595 493.595;" xml:space="preserve" width="512px" height="512px">
<path d="M487.077,83.395c-6.435-8.772-16.579-13.751-27.136-13.75c-2.73,0-5.488,0.333-8.216,1.02L25.442,177.971  c-13.192,3.319-23.086,14.255-25.079,27.71c-1.989,13.456,4.315,26.787,15.979,33.784l90.143,54.086v118.643  c0,4.49,2.559,8.588,6.592,10.561c4.034,1.972,8.84,1.474,12.383-1.284l84.547-65.805l69.455,41.672  c5.419,3.252,11.388,4.801,17.284,4.801c11.308,0,22.341-5.699,28.694-16.023l163.162-265.178  C495.778,109.278,495.174,94.434,487.077,83.395z M294.73,360.095L189.042,296.68l107.223-92.395  c1.502-1.294,1.854-3.48,0.834-5.179c-1.018-1.699-3.112-2.419-4.96-1.704l-163.321,63.145L49.493,212.95l397.313-100.013  L294.73,360.095z" fill="#fbbf47"/>
</svg>
