<?xml version="1.0" encoding="iso-8859-1"?>
<!-- Generator: Adobe Illustrator 19.0.0, SVG Export Plug-In . SVG Version: 6.00 Build 0)  -->
<svg version="1.1" id="Capa_1" xmlns="http://www.w3.org/2000/svg" xmlns:xlink="http://www.w3.org/1999/xlink" x="0px" y="0px"
	 viewBox="0 0 470 470" style="enable-background:new 0 0 470 470;" xml:space="preserve">
<g>
	<path style="fill:#fbbf47;" d="M235,447.5c118.798,0,215.906-94.65,219.874-212.5H15.126C19.094,352.85,116.202,447.5,235,447.5z
		 M122.27,361.75c4.146,0,7.504,3.358,7.504,7.5s-3.358,7.5-7.5,7.5c-4.144,0-7.504-3.36-7.504-7.5S118.13,361.75,122.27,361.75z
		 M92.27,331.75c4.146,0,7.504,3.358,7.504,7.5c0,4.142-3.358,7.5-7.5,7.5c-4.144,0-7.504-3.36-7.504-7.5S88.13,331.75,92.27,331.75
		z"/>
	<path style="fill:#FFFFFF;" d="M438.696,220c-1.772-4.98-5.268-9.283-9.978-12.001c-2.021-1.165-3.384-3.204-3.688-5.518
		c-0.304-2.313,0.485-4.635,2.135-6.284c5.683-5.679,7.925-14.015,5.851-21.755c-2.074-7.74-8.184-13.839-15.946-15.916
		c-2.253-0.604-4.098-2.221-4.99-4.375c-0.893-2.155-0.731-4.603,0.436-6.622c4.02-6.957,4.028-15.59,0.021-22.529
		c-4.005-6.938-11.481-11.246-19.513-11.246c-2.343,0-4.542-1.084-5.961-2.934c-1.42-1.851-1.898-4.257-1.293-6.51
		c2.082-7.761-0.145-16.102-5.811-21.767c-5.667-5.667-14.007-7.896-21.768-5.812c-2.252,0.604-4.659,0.126-6.509-1.294
		s-2.935-3.62-2.934-5.953c0.002-8.034-4.307-15.515-11.246-19.521c-6.94-4.007-15.573-3.998-22.529,0.021
		c-2.019,1.166-4.466,1.327-6.623,0.435c-2.155-0.893-3.772-2.736-4.375-4.99c-2.077-7.761-8.176-13.871-15.916-15.946
		c-7.739-2.074-16.076,0.169-21.756,5.853c-1.648,1.649-3.973,2.438-6.284,2.134c-2.313-0.305-4.352-1.668-5.518-3.688
		C250.485,26.823,243.014,22.5,235,22.5s-15.485,4.323-19.5,11.282c-1.166,2.021-3.205,3.384-5.518,3.688
		c-2.311,0.304-4.635-0.483-6.284-2.134c-5.681-5.685-14.018-7.925-21.757-5.853c-7.74,2.075-13.839,8.186-15.916,15.946
		c-0.603,2.254-2.22,4.098-4.375,4.99c-2.156,0.894-4.603,0.732-6.623-0.435c-6.957-4.02-15.588-4.027-22.529-0.021
		c-6.939,4.006-11.249,11.486-11.246,19.521c0.001,2.333-1.084,4.533-2.934,5.953c-1.851,1.418-4.257,1.896-6.509,1.294
		c-7.759-2.081-16.102,0.145-21.767,5.811c-5.667,5.666-7.893,14.007-5.811,21.768c0.604,2.253,0.126,4.659-1.293,6.51
		c-1.419,1.85-3.619,2.934-5.95,2.934c-8.043,0-15.519,4.309-19.524,11.246c-4.007,6.939-3.999,15.572,0.021,22.529
		c1.167,2.02,1.328,4.467,0.436,6.622c-0.893,2.154-2.737,3.771-4.99,4.375c-7.762,2.077-13.872,8.176-15.946,15.916
		s0.168,16.076,5.851,21.755c1.65,1.649,2.439,3.972,2.135,6.284c-0.305,2.313-1.668,4.353-3.688,5.518
		c-4.71,2.718-8.206,7.021-9.978,12.001H438.696z M334.27,144.5c4.146,0,7.504,3.358,7.504,7.5c0,4.142-3.358,7.5-7.5,7.5
		c-4.144,0-7.504-3.36-7.504-7.5S330.13,144.5,334.27,144.5z M134.27,114.5c4.146,0,7.504,3.358,7.504,7.5
		c0,4.142-3.358,7.5-7.5,7.5c-4.144,0-7.504-3.36-7.504-7.5S130.13,114.5,134.27,114.5z M134.27,174.5
		c4.146,0,7.504,3.358,7.504,7.5s-3.358,7.5-7.5,7.5c-4.144,0-7.504-3.36-7.504-7.5S130.13,174.5,134.27,174.5z M104.27,144.5
		c4.146,0,7.504,3.358,7.504,7.5c0,4.142-3.358,7.5-7.5,7.5c-4.144,0-7.504-3.36-7.504-7.5S100.13,144.5,104.27,144.5z"/>
	<path style="fill:#1C1918;" d="M470,227.5c0-4.143-3.358-7.5-7.5-7.5h-8.269c-1.567-7.614-5.473-14.585-11.143-19.896
		c5.419-8.715,7.125-19.434,4.416-29.545c-2.709-10.11-9.546-18.54-18.597-23.378c2.98-9.822,1.854-20.616-3.381-29.682
		c-5.234-9.066-14.018-15.439-24.014-17.769c0.336-10.258-3.546-20.394-10.948-27.794c-7.402-7.403-17.533-11.303-27.795-10.949
		c-2.33-9.996-8.703-18.78-17.769-24.014c-9.065-5.234-19.86-6.358-29.681-3.382c-4.838-9.051-13.267-15.887-23.379-18.597
		c-10.111-2.709-20.829-1.004-29.544,4.416C255.38,11.922,245.468,7.5,235,7.5s-20.38,4.422-27.396,11.912
		c-8.715-5.419-19.435-7.126-29.545-4.416c-10.111,2.71-18.541,9.546-23.378,18.597c-9.82-2.979-20.616-1.853-29.681,3.382
		c-9.066,5.233-15.439,14.018-17.769,24.014c-10.266-0.346-20.394,3.546-27.795,10.948c-7.402,7.401-11.284,17.537-10.948,27.795
		c-9.995,2.33-18.78,8.703-24.014,17.769c-5.234,9.065-6.361,19.859-3.381,29.682c-9.051,4.838-15.888,13.268-18.597,23.379
		c-2.709,10.111-1.003,20.829,4.416,29.544c-5.67,5.31-9.576,12.281-11.143,19.896H7.5c-4.142,0-7.5,3.357-7.5,7.5
		c0,62.771,24.444,121.784,68.83,166.17c24.033,24.032,52.359,42.205,83.243,53.83H147.5c-4.142,0-7.5,3.357-7.5,7.5
		s3.358,7.5,7.5,7.5h175c4.142,0,7.5-3.357,7.5-7.5s-3.358-7.5-7.5-7.5h-4.573c30.884-11.625,59.21-29.798,83.243-53.83
		C445.556,349.284,470,290.271,470,227.5z M41.283,207.999c2.021-1.165,3.384-3.204,3.688-5.518
		c0.304-2.313-0.485-4.635-2.135-6.284c-5.683-5.679-7.925-14.015-5.851-21.755s8.184-13.839,15.946-15.916
		c2.253-0.604,4.098-2.221,4.99-4.375c0.893-2.155,0.731-4.603-0.436-6.622c-4.02-6.957-4.028-15.59-0.021-22.529
		c4.005-6.938,11.481-11.246,19.513-11.246c2.343,0,4.542-1.084,5.961-2.934c1.42-1.851,1.898-4.257,1.293-6.51
		c-2.082-7.761,0.145-16.102,5.811-21.768c5.666-5.666,14.008-7.892,21.767-5.811c2.252,0.603,4.659,0.124,6.509-1.294
		c1.85-1.42,2.935-3.62,2.934-5.953c-0.002-8.034,4.307-15.515,11.246-19.521c6.941-4.006,15.572-3.998,22.529,0.021
		c2.02,1.167,4.467,1.328,6.623,0.435c2.155-0.893,3.772-2.736,4.375-4.99c2.077-7.761,8.176-13.871,15.916-15.946
		c7.739-2.072,16.076,0.168,21.757,5.853c1.648,1.65,3.973,2.438,6.284,2.134c2.313-0.305,4.352-1.668,5.518-3.688
		C219.515,26.823,226.986,22.5,235,22.5s15.485,4.323,19.5,11.282c1.166,2.021,3.205,3.384,5.518,3.688
		c2.311,0.304,4.635-0.484,6.284-2.134c5.681-5.684,14.017-7.927,21.756-5.853c7.74,2.075,13.839,8.186,15.916,15.946
		c0.603,2.254,2.22,4.098,4.375,4.99c2.156,0.893,4.604,0.731,6.623-0.435c6.957-4.02,15.589-4.028,22.529-0.021
		c6.939,4.006,11.248,11.486,11.246,19.521c-0.001,2.333,1.084,4.533,2.934,5.953s4.257,1.898,6.509,1.294
		c7.761-2.085,16.101,0.145,21.768,5.812c5.666,5.665,7.893,14.006,5.811,21.767c-0.604,2.253-0.126,4.659,1.293,6.51
		c1.42,1.85,3.619,2.934,5.95,2.934c8.042,0,15.519,4.309,19.524,11.246c4.007,6.939,3.999,15.572-0.021,22.529
		c-1.167,2.02-1.328,4.467-0.436,6.622c0.893,2.154,2.737,3.771,4.99,4.375c7.762,2.077,13.872,8.176,15.946,15.916
		c2.074,7.74-0.168,16.076-5.851,21.755c-1.65,1.649-2.439,3.972-2.135,6.284c0.305,2.313,1.668,4.353,3.688,5.518
		c4.71,2.718,8.206,7.021,9.978,12.001H31.304C33.077,215.02,36.573,210.717,41.283,207.999z M454.874,235
		C450.906,352.85,353.798,447.5,235,447.5S19.094,352.85,15.126,235H454.874z"/>
	<circle style="fill:#FFFFFF;" cx="122.274" cy="369.25" r="7.5"/>
	<circle style="fill:#FFFFFF;" cx="92.274" cy="339.25" r="7.5"/>
	<circle style="fill:#1C1918;" cx="134.274" cy="182" r="7.5"/>
	<circle style="fill:#1C1918;" cx="164.274" cy="122" r="7.5"/>
	<circle style="fill:#1C1918;" cx="134.274" cy="122" r="7.5"/>
	<circle style="fill:#1C1918;" cx="104.274" cy="152" r="7.5"/>
	<circle style="fill:#1C1918;" cx="334.274" cy="152" r="7.5"/>
</g>
</svg>
