<?xml version="1.0" encoding="UTF-8" standalone="no"?>
<!-- Created with Inkscape (http://www.inkscape.org/) -->

<svg
   xmlns:dc="http://purl.org/dc/elements/1.1/"
   xmlns:cc="http://creativecommons.org/ns#"
   xmlns:rdf="http://www.w3.org/1999/02/22-rdf-syntax-ns#"
   xmlns:svg="http://www.w3.org/2000/svg"
   xmlns="http://www.w3.org/2000/svg"
   xmlns:sodipodi="http://sodipodi.sourceforge.net/DTD/sodipodi-0.dtd"
   xmlns:inkscape="http://www.inkscape.org/namespaces/inkscape"
   width="300"
   height="300"
   viewBox="0 0 300 300"
   id="svg2"
   version="1.1"
   inkscape:version="0.91 r13725"
   sodipodi:docname="sea.svg">
  <defs
     id="defs4" />
  <sodipodi:namedview
     id="base"
     pagecolor="#ffffff"
     bordercolor="#666666"
     borderopacity="1.0"
     inkscape:pageopacity="0.0"
     inkscape:pageshadow="2"
     inkscape:zoom="1.24"
     inkscape:cx="107.83009"
     inkscape:cy="150"
     inkscape:document-units="px"
     inkscape:current-layer="layer1"
     showgrid="false"
     units="px"
     inkscape:window-width="1129"
     inkscape:window-height="625"
     inkscape:window-x="29"
     inkscape:window-y="13"
     inkscape:window-maximized="0" />
  <metadata
     id="metadata7">
    <rdf:RDF>
      <cc:Work
         rdf:about="">
        <dc:format>image/svg+xml</dc:format>
        <dc:type
           rdf:resource="http://purl.org/dc/dcmitype/StillImage" />
        <dc:title></dc:title>
      </cc:Work>
    </rdf:RDF>
  </metadata>
  <g
     inkscape:label="Layer 1"
     inkscape:groupmode="layer"
     id="layer1"
     transform="translate(0,-752.36216)">
    <path
       style="fill:#fbbf47"
       d="m 180.11421,1031.8695 c -2.95669,-2.957 -4.4205,-19.3531 -4.4205,-49.51314 0,-45.79964 -2.80369,-55.35323 -13.19472,-44.96208 -3.37407,3.37393 -6.08028,19.40837 -7.93487,47.01434 -2.21726,33.00538 -4.11678,42.71318 -8.9522,45.75338 -4.44502,2.7944 -7.74671,2.523 -11.972,-0.9834 -11.75538,-9.7577 -5.63932,-71.74272 10.07548,-102.11665 5.85473,-11.31607 5.77618,-11.76023 -3.10984,-17.58259 -6.99984,-4.58637 -9.11638,-9.16024 -9.11638,-19.70074 0,-12.20416 2.84379,-16.42281 25.62576,-38.0175 27.72266,-26.27768 28.74057,-33.47226 4.27154,-30.1903 -16.74735,2.24627 -23.517,-4.47031 -21.86015,-21.68867 1.52973,-15.89871 11.91177,-18.17364 23.90595,-5.23838 13.53293,14.59452 19.62882,12.5416 19.62882,-6.61037 0,-11.5468 1.7167,-16.84135 5.99246,-18.48198 9.01675,-3.4602 16.10977,4.60676 16.10977,18.32152 0,16.98057 4.84686,18.29692 18.20076,4.94302 9.38472,-9.38473 12.43328,-10.63809 16.88609,-6.94243 6.98491,5.79683 7.01689,23.49415 0.0527,29.27359 -2.95959,2.45625 -12.1393,5.37242 -20.39943,6.4803 -18.1282,2.43152 -17.39978,7.24186 2.70675,17.87448 38.4127,20.31312 47.12247,32.36261 35.37468,48.93893 -15.11436,21.32679 -17.19761,28.35453 -11.20738,37.80681 3.60578,5.68943 6.42142,23.5974 8.06704,51.30787 2.75786,46.43839 0.44669,53.23659 -17.24612,50.72819 -8.13746,-1.1533 -8.57284,-2.8919 -10.45241,-41.72426 -2.02383,-41.81186 -4.05769,-49.73002 -12.77349,-49.73002 -8.91609,0 -11.00824,8.24112 -12.89303,50.78529 -1.3936,31.45879 -3.18648,42.42619 -7.36733,45.06909 -7.20636,4.5551 -8.71592,4.4669 -13.99813,-0.8143 z m 19.19292,-115.76745 c 1.26485,-3.29577 0.37569,-8.31067 -1.97581,-11.14405 -3.63271,-4.37713 -5.30163,-4.22286 -11.10166,1.02612 -5.19101,4.69771 -5.83889,7.36729 -2.70451,11.14404 5.59121,6.73688 12.98758,6.25606 15.78198,-1.02611 z m -28.93547,-27.38579 c 5.8803,-6.49766 6.0954,-8.08283 1.49176,-10.9947 -7.34428,-4.64563 -9.28131,-4.38406 -14.54925,1.96341 -4.69506,5.65713 -2.74343,16.62357 2.95815,16.62357 1.77562,0 6.32039,-3.41648 10.09934,-7.59228 z m 60.43913,-2.27749 c 6.99378,-8.89117 7.20052,-10.43284 2.08522,-15.54809 -5.11518,-5.11524 -6.65114,-4.70547 -15.48978,4.13334 -8.26315,8.26303 -9.06014,10.71673 -5.05059,15.54803 6.5695,7.91573 9.49227,7.26127 18.45515,-4.13328 z m -33.14887,-24.964 c 5.52249,-6.65414 1.97612,-13.05436 -7.23337,-13.05436 -3.81294,0 -8.00203,1.73028 -9.30899,3.84506 -2.44267,3.95219 4.34192,14.57352 9.30899,14.57352 1.52976,0 4.78495,-2.4139 7.23337,-5.36422 z M 74.287132,1028.7531 c -1.309722,-2.1208 -1.169128,-57.79503 0.312422,-123.72349 2.800201,-124.60816 3.797589,-131.19408 18.073957,-119.34576 7.609579,6.31543 6.45437,231.56815 -1.23514,240.83105 -5.74036,6.9148 -13.624308,7.9443 -17.151219,2.2382 z m -30.958287,-10.4177 c -4.18598,-7.8218 -4.701496,-83.04153 -0.697456,-101.76639 1.857756,-8.68776 4.324831,-11.05117 11.53622,-11.05117 l 9.173077,0 1.027954,44.33325 c 0.565369,24.38331 -0.335852,50.89721 -2.002707,58.91941 -3.41188,16.4221 -12.83387,21.1553 -19.037088,9.5649 z m 63.060945,-0.036 c -3.74143,-2.3135 -4.57698,-15.8609 -3.68378,-59.72716 l 1.15545,-56.7352 10.59423,-1.21036 10.5943,-1.21041 -1.57977,55.60825 c -1.19241,41.97453 -2.88677,56.91358 -6.9106,60.93738 -3.18466,3.1832 -7.27894,4.125 -10.16983,2.3375 z M 41.225218,872.86127 c -8.069912,-12.31621 -3.12897,-77.1668 6.012594,-78.91629 13.287603,-2.54295 17.944727,9.08189 17.944727,44.79248 0,33.59019 -2.923577,42.83619 -13.544783,42.83619 -2.587157,0 -7.272777,-3.92051 -10.412538,-8.71238 z m 66.788322,-1.58078 c -1.13784,-1.84089 -1.03444,-20.32175 0.22933,-41.06845 2.37315,-38.9544 6.09136,-46.69884 17.76771,-37.00841 5.90089,4.89736 6.9747,32.41085 2.4429,62.58418 -1.98403,13.20955 -4.10283,16.80649 -10.43056,17.70829 -4.36736,0.62223 -8.87166,-0.37473 -10.00938,-2.21561 z"
       id="path3737"
       inkscape:connector-curvature="0" />
  </g>
</svg>
