<?xml version="1.0" encoding="iso-8859-1"?>
<!-- Generator: Adobe Illustrator 19.0.0, SVG Export Plug-In . SVG Version: 6.00 Build 0)  -->
<svg xmlns="http://www.w3.org/2000/svg" xmlns:xlink="http://www.w3.org/1999/xlink" version="1.1" id="Layer_1" x="0px" y="0px" viewBox="0 0 512 512" style="enable-background:new 0 0 512 512;" xml:space="preserve" width="512px" height="512px">
<g>
	<g>
		<path d="M256.005,63.635c-106.062,0-192.35,86.288-192.35,192.35s86.288,192.35,192.35,192.35s192.35-86.288,192.35-192.35    S362.068,63.635,256.005,63.635z M256.005,430.596c-96.281,0-174.611-78.33-174.611-174.611s78.33-174.611,174.611-174.611    s174.611,78.33,174.611,174.611S352.286,430.596,256.005,430.596z" fill="#006DF0"/>
	</g>
</g>
<g>
	<g>
		<path d="M254.092,494.243c-38.881-0.277-77.607-10.317-111.989-29.036c-51.89-28.249-91.245-74.476-110.816-130.164    c-19.43-55.285-17.915-115.439,4.266-169.379c1.863-4.531-0.299-9.714-4.83-11.576c-4.531-1.863-9.713,0.3-11.576,4.83    c-23.838,57.971-25.471,122.609-4.596,182.007c21.03,59.839,63.316,109.509,119.07,139.863    c36.938,20.11,78.553,30.898,120.343,31.196c0.023,0,0.044,0,0.065,0c4.869,0,8.833-3.93,8.868-8.807    C262.933,498.277,258.99,494.279,254.092,494.243z" fill="#006DF0"/>
	</g>
</g>
<g>
	<g>
		<path d="M81.766,80.472c-3.577-3.347-9.19-3.161-12.537,0.416l-0.415,0.445c-3.34,3.583-3.142,9.196,0.441,12.535    c1.709,1.593,3.879,2.381,6.045,2.381c2.375,0,4.745-0.948,6.489-2.822l0.393-0.419C85.529,89.431,85.342,83.819,81.766,80.472z" fill="#006DF0"/>
	</g>
</g>
<g>
	<g>
		<g>
			<path d="M351.865,18.633c-0.355-0.142-0.71-0.284-1.053-0.426l-0.118-0.047c-1.052-0.426-2.164-0.639-3.288-0.639     c-3.654,0-6.883,2.2-8.243,5.582c-0.414,1.041-0.627,2.141-0.639,3.252c-0.012,3.666,2.176,6.918,5.582,8.278l1.088,0.438     c1.076,0.438,2.188,0.65,3.335,0.65c3.631,0,6.859-2.176,8.219-5.534c0.887-2.2,0.875-4.612-0.047-6.788     C355.78,21.211,354.065,19.52,351.865,18.633z" fill="#006DF0"/>
			<path d="M251.747,0.019l-0.615,0.012c-0.225,0-0.438,0.012-0.65,0.012c-2.33,0.059-4.518,1.005-6.138,2.661     c-1.632,1.667-2.531,3.855-2.531,6.185c0,0.071,0,0.142,0,0.225c0.047,2.33,0.993,4.518,2.673,6.15     c1.667,1.62,3.867,2.519,6.197,2.519c0.059,0,0.13,0,0.189,0h0.024c0.39-0.012,0.769-0.024,1.159-0.024     c2.365-0.047,4.577-1.005,6.22-2.708c1.656-1.703,2.531-3.95,2.495-6.315c-0.047-2.341-0.982-4.541-2.661-6.173     C256.406,0.882,254.148-0.017,251.747,0.019z" fill="#006DF0"/>
			<path d="M155.898,21.199c-1.242,0-2.448,0.26-3.583,0.757c-0.225,0.106-0.449,0.201-0.662,0.296     c-0.166,0.071-0.331,0.154-0.497,0.225c-4.47,1.999-6.469,7.261-4.47,11.719c1.431,3.193,4.612,5.251,8.101,5.251     c1.254,0,2.472-0.272,3.619-0.781c0.012,0,0.012,0,0.012-0.012c0.355-0.154,0.698-0.307,1.053-0.461l0.012-0.012     c4.47-1.975,6.504-7.226,4.529-11.696C162.591,23.281,159.398,21.199,155.898,21.199z" fill="#006DF0"/>
			<path d="M426.357,426.178c-2.282,0-4.458,0.875-6.114,2.448c-0.272,0.26-0.544,0.508-0.816,0.769l-0.035,0.035     c-3.56,3.359-3.725,8.988-0.378,12.547c1.703,1.798,3.985,2.779,6.457,2.779c2.271,0,4.435-0.851,6.09-2.412l0.922-0.875     c1.774-1.679,2.744-3.962,2.744-6.41c0.012-2.294-0.863-4.47-2.436-6.126C431.099,427.16,428.817,426.178,426.357,426.178z" fill="#006DF0"/>
			<path d="M343.055,478.366c-1.064,0-2.117,0.189-3.122,0.568l-0.118,0.047c-2.223,0.828-3.985,2.472-4.967,4.636     c-0.982,2.152-1.053,4.565-0.225,6.788c1.289,3.441,4.624,5.747,8.302,5.747c1.064,0,2.117-0.189,3.122-0.568l0.13-0.047     c3.43-1.289,5.736-4.612,5.747-8.266c0-1.076-0.189-2.141-0.568-3.158C350.068,480.672,346.721,478.366,343.055,478.366z" fill="#006DF0"/>
			<path d="M436.705,74.617c-0.26-0.26-0.52-0.52-0.781-0.769c-1.667-1.644-3.879-2.554-6.22-2.554     c-2.401,0-4.636,0.934-6.315,2.637c-1.644,1.656-2.543,3.855-2.554,6.185c-0.024,2.401,0.922,4.659,2.637,6.362l0.84,0.828     c1.667,1.667,3.891,2.59,6.256,2.59c2.377,0,4.612-0.922,6.28-2.614c3.453-3.465,3.453-9.082-0.012-12.536L436.705,74.617z" fill="#006DF0"/>
			<path d="M493.043,159.385c-0.13-0.319-0.26-0.639-0.39-0.958c-1.384-3.335-4.6-5.499-8.207-5.499     c-1.159,0-2.294,0.225-3.37,0.674c-3.347,1.372-5.511,4.6-5.499,8.231c0,1.147,0.225,2.271,0.662,3.347l0.118,0.272     c0.106,0.272,0.225,0.544,0.331,0.816c1.372,3.359,4.588,5.535,8.219,5.535c1.147,0,2.271-0.213,3.335-0.65     c4.529-1.845,6.729-7.025,4.884-11.554L493.043,159.385z" fill="#006DF0"/>
			<path d="M503.202,249.451h-0.071c-4.849,0-8.834,3.938-8.869,8.787c0,0.39-0.012,0.781-0.012,1.183     c-0.071,4.884,3.855,8.917,8.751,8.988c0.036,0,0.083,0,0.118,0c4.825,0,8.799-3.926,8.869-8.751l0.012-1.265     c0-0.035,0-0.083,0-0.118C511.977,253.449,508.039,249.487,503.202,249.451z" fill="#006DF0"/>
			<path d="M486.184,346.318c-1.123-0.497-2.318-0.745-3.536-0.745c-3.536,0-6.729,2.093-8.136,5.333l-0.095,0.213     c-0.13,0.284-0.248,0.579-0.378,0.863c-0.958,2.164-1.017,4.577-0.154,6.788c0.852,2.211,2.519,3.95,4.683,4.908     c1.147,0.497,2.342,0.757,3.583,0.757c3.512,0,6.693-2.081,8.113-5.286c0.177-0.39,0.343-0.769,0.509-1.159     c0.497-1.135,0.745-2.33,0.745-3.548C491.506,350.918,489.424,347.725,486.184,346.318z" fill="#006DF0"/>
		</g>
	</g>
</g>
<g>
	<g>
		<path d="M351.246,484.154c-1.724-4.585-6.84-6.903-11.424-5.179l-0.523,0.195c-4.592,1.708-6.93,6.813-5.222,11.405    c1.329,3.573,4.715,5.78,8.315,5.78c1.028,0,2.072-0.18,3.09-0.559l0.585-0.219C350.652,493.853,352.97,488.738,351.246,484.154z" fill="#006DF0"/>
	</g>
</g>
<g>
	<g>
		<path d="M347.888,335.324l-83.37-82.996l0.358-116.19c0.015-4.898-3.944-8.881-8.842-8.897c-0.008,0-0.018,0-0.027,0    c-4.885,0-8.854,3.953-8.869,8.842l-0.37,119.891c-0.008,2.369,0.933,4.642,2.611,6.313l85.993,85.607    c1.731,1.723,3.995,2.584,6.258,2.584c2.277,0,4.553-0.872,6.287-2.612C351.372,344.396,351.36,338.78,347.888,335.324z" fill="#006DF0"/>
	</g>
</g>
<g>
	<g>
		<path d="M308.154,174.844c-4.118-2.65-9.605-1.463-12.259,2.656c-2.653,4.118-1.463,9.607,2.655,12.259    c22.642,14.579,36.16,39.338,36.16,66.228c0,7.666-1.097,15.239-3.264,22.511c-1.398,4.695,1.274,9.633,5.969,11.032    c0.844,0.252,1.697,0.371,2.535,0.371c3.821,0,7.35-2.491,8.497-6.339c2.655-8.917,4.002-18.194,4.002-27.576    C352.45,223.037,335.891,192.704,308.154,174.844z" fill="#006DF0"/>
	</g>
</g>
<g>
	<g>
		<path d="M283.134,339.751c-1.026-4.789-5.738-7.841-10.532-6.812c-5.415,1.162-11,1.751-16.597,1.751    c-43.399,0-78.705-35.306-78.705-78.705c0-27.606,14.07-52.713,37.641-67.158c4.176-2.56,5.487-8.022,2.927-12.197    c-2.559-4.176-8.02-5.487-12.197-2.927c-28.872,17.696-46.109,48.457-46.109,82.282c0,53.18,43.264,96.444,96.444,96.444    c6.846,0,13.681-0.723,20.317-2.146C281.113,349.255,284.162,344.54,283.134,339.751z" fill="#006DF0"/>
	</g>
</g>
<g>
</g>
<g>
</g>
<g>
</g>
<g>
</g>
<g>
</g>
<g>
</g>
<g>
</g>
<g>
</g>
<g>
</g>
<g>
</g>
<g>
</g>
<g>
</g>
<g>
</g>
<g>
</g>
<g>
</g>
</svg>
