<?xml version="1.0" encoding="UTF-8"?>
<svg width="14px" height="12px" viewBox="0 0 14 12" version="1.1" xmlns="http://www.w3.org/2000/svg" xmlns:xlink="http://www.w3.org/1999/xlink">
    <!-- Generator: Sketch 55.2 (78181) - https://sketchapp.com -->
    <title>code</title>
    <desc>Created with Sketch.</desc>
    <g id="项目管理" stroke="none" stroke-width="1" fill="none" fill-rule="evenodd">
        <g id="项目列表-更新" transform="translate(-835.000000, -238.000000)" fill-rule="nonzero">
            <g id="code" transform="translate(834.000000, 236.000000)">
                <rect id="矩形" fill="#000000" opacity="0" x="0" y="0" width="16" height="16"></rect>
                <path d="M6.85,13.2671875 L10.3296875,3.1625 C10.3328125,3.1546875 10.334375,3.1453125 10.3359375,3.1375 L6.85,13.2671875 Z M10.33125,2.6359375 L9.2765625,2.6359375 C9.2234375,2.6359375 9.175,2.6703125 9.1578125,2.7203125 L5.5421875,13.21875 C5.5375,13.23125 5.5359375,13.2453125 5.5359375,13.259375 C5.5359375,13.328125 5.5921875,13.384375 5.6609375,13.384375 L6.7203125,13.384375 C6.7734375,13.384375 6.821875,13.35 6.8390625,13.3 L6.85,13.2671875 L10.3359375,3.1375 L10.4515625,2.803125 C10.45625,2.790625 10.4578125,2.7765625 10.4578125,2.7625 C10.45625,2.6921875 10.4015625,2.6359375 10.33125,2.6359375 L10.33125,2.6359375 Z M14.915625,7.8453125 C14.903125,7.8296875 14.8890625,7.815625 14.8734375,7.803125 L11.4515625,5.1265625 C11.396875,5.084375 11.31875,5.09375 11.2765625,5.1484375 C11.259375,5.1703125 11.25,5.196875 11.25,5.225 L11.25,6.4953125 C11.25,6.534375 11.2671875,6.5703125 11.2984375,6.59375 L13.0953125,8 L11.2984375,9.40625 C11.26875,9.4296875 11.25,9.465625 11.25,9.5046875 L11.25,10.775 C11.25,10.84375 11.30625,10.9 11.375,10.9 C11.403125,10.9 11.4296875,10.890625 11.4515625,10.8734375 L14.8734375,8.196875 C14.98125,8.1125 15.0015625,7.9546875 14.915625,7.8453125 L14.915625,7.8453125 Z M4.5484375,5.1265625 L1.1265625,7.803125 C1.1109375,7.815625 1.096875,7.8296875 1.084375,7.8453125 C1,7.9546875 1.01875,8.1109375 1.1265625,8.196875 L4.5484375,10.8734375 C4.5703125,10.890625 4.596875,10.9 4.625,10.9 C4.69375,10.9 4.75,10.84375 4.75,10.775 L4.75,9.5046875 C4.75,9.465625 4.7328125,9.4296875 4.7015625,9.40625 L2.9046875,8 L4.7015625,6.59375 C4.73125,6.5703125 4.75,6.534375 4.75,6.4953125 L4.75,5.225 C4.75,5.196875 4.740625,5.1703125 4.7234375,5.1484375 C4.68125,5.09375 4.603125,5.084375 4.5484375,5.1265625 L4.5484375,5.1265625 Z" id="形状" fill="#FFFFFF"></path>
            </g>
        </g>
    </g>
</svg>