<svg xmlns="http://www.w3.org/2000/svg" width="32" height="32" viewBox="0 0 36 36"><path fill="#DD2E44" d="M18 36C3.042 36 1 21 1 17h34c0 2-1.958 19-17 19z"/><ellipse cx="18" cy="17.056" fill="#A0041E" rx="17" ry="9.444"/><path fill="#E6E9EA" d="M18 25c-6 0-16-3-16-8C2 11 8.125 4 18 4s16 8 16 13s-9 8-16 8z"/><path fill="#CCD6DD" d="M15.41 19.892a1 1 0 1 1-1.302 1.518l-1.519-1.302a1 1 0 1 1 1.302-1.518l1.519 1.302zm-8.127-1.507a1.001 1.001 0 0 1-1.669-1.103l1.103-1.669a1 1 0 0 1 1.669 1.103l-1.103 1.669zm23 0a1 1 0 1 1-1.669-1.103l1.103-1.669a1 1 0 0 1 1.669 1.103l-1.103 1.669zm-6.103-3.606a1.001 1.001 0 0 1-1.96.4l-.399-1.96a.999.999 0 1 1 1.959-.399l.4 1.959zm-7.54-3.958a.674.674 0 1 1 .508-1.249l1.249.509a.673.673 0 1 1-.509 1.248l-1.248-.508zm-9.296 1.567a.674.674 0 1 1-.763-1.112l1.113-.762a.675.675 0 0 1 .762 1.113l-1.112.761zm13.593 8.545a1.001 1.001 0 0 1 .129-1.997l1.997.131a1 1 0 0 1-.129 1.995l-1.997-.129zm-9.241-6.386a1 1 0 1 1 .755-1.853l1.853.755a1 1 0 1 1-.755 1.852l-1.853-.754zm15.945-2.726a.675.675 0 0 1 .508-1.249l1.25.509a.673.673 0 1 1-.51 1.248l-1.248-.508z"/></svg>