<svg xmlns="http://www.w3.org/2000/svg" width="28" height="27"><g fill="none" fill-rule="evenodd"><path d="M26.594 12.968c0 .912-.74 1.651-1.652 1.651H3.058a1.651 1.651 0 01-.852-3.065 1.65 1.65 0 01.543-2.547 1.651 1.651 0 011.778-2.213A1.651 1.651 0 016.79 4.532a1.651 1.651 0 012.472-1.654 1.652 1.652 0 012.977-.786 1.652 1.652 0 013.11 0 1.652 1.652 0 012.977.785 1.651 1.651 0 012.472 1.654 1.651 1.651 0 012.263 2.262 1.651 1.651 0 011.778 2.213 1.65 1.65 0 01.65 2.404 1.652 1.652 0 011.105 1.558z" stroke="#000" stroke-width=".8" fill="#FFF" stroke-linejoin="round"/><path fill="#000" d="M9.531 24.937h8.938V27H9.531z"/><path d="M1 13.794h26c-.42 6.909-6.08 12.38-13 12.38S1.42 20.704 1 13.795h0z" stroke="#000" stroke-width=".8" fill="#1890FF"/><path d="M8.313 8.016a.41.41 0 01-.407-.413.41.41 0 01.407-.413.41.41 0 01.406.413.41.41 0 01-.406.413zm-1.626 2.063a.41.41 0 01-.406-.412.41.41 0 01.407-.413.41.41 0 01.406.413.41.41 0 01-.407.412zm1.625 1.651a.41.41 0 01-.406-.413.41.41 0 01.407-.412.41.41 0 01.406.412.41.41 0 01-.406.413zm1.626-3.3a.41.41 0 01-.407-.413.41.41 0 01.406-.413.41.41 0 01.407.413.41.41 0 01-.406.413zm9.75 1.65a.41.41 0 01-.407-.412.41.41 0 01.407-.413.41.41 0 01.406.413.41.41 0 01-.407.412z" fill="#000"/></g></svg>