<svg t="1658202713833" class="icon" viewBox="0 0 1024 1024" version="1.1" xmlns="http://www.w3.org/2000/svg" p-id="1748" width="20" height="20"><path d="M816.277333 165.056a128 128 0 0 1 0 181.013333L309.653333 852.693333a21.333333 21.333333 0 0 1-15.082666 6.229334H165.056a42.666667 42.666667 0 0 1-42.666667-42.666667v-129.493333a21.333333 21.333333 0 0 1 6.229334-15.104L635.306667 165.056a128 128 0 0 1 180.992 0z m-45.226666 45.226667a64 64 0 0 0-87.786667-2.56l-2.752 2.56L188.885333 701.930667a8.533333 8.533333 0 0 0-2.496 6.037333v78.464c0 4.714667 3.818667 8.533333 8.533334 8.533333h78.421333a8.533333 8.533333 0 0 0 6.037333-2.517333l491.648-491.605333a64 64 0 0 0 2.581334-87.786667l-2.56-2.730667z" p-id="1749"></path><path d="M590.016 210.304l181.013333 181.013333-45.248 45.248-181.013333-181.013333z" p-id="1750"></path><path d="M490.666667 795.733333m8.533333 0l345.6 0q8.533333 0 8.533333 8.533334l0 46.933333q0 8.533333-8.533333 8.533333l-345.6 0q-8.533333 0-8.533333-8.533333l0-46.933333q0-8.533333 8.533333-8.533334Z" p-id="1751"></path><path d="M661.333333 667.733333m8.533334 0l174.933333 0q8.533333 0 8.533333 8.533334l0 46.933333q0 8.533333-8.533333 8.533333l-174.933333 0q-8.533333 0-8.533334-8.533333l0-46.933333q0-8.533333 8.533334-8.533334Z" p-id="1752"></path></svg>
