<?xml version="1.0" encoding="UTF-8"?>
<svg width="438px" height="268px" viewBox="0 0 438 268" version="1.1" xmlns="http://www.w3.org/2000/svg" xmlns:xlink="http://www.w3.org/1999/xlink">
    <!-- Generator: Sketch 63.1 (92452) - https://sketch.com -->
    <title>空状态</title>
    <desc>Created with Sketch.</desc>
    <defs>
        <polygon id="path-1" points="0.472579435 0.409025971 66.8443607 0.409025971 66.8443607 79.5608485 0.472579435 79.5608485"></polygon>
        <polygon id="path-3" points="0 0.0153470239 36.0889387 0.0153470239 36.0889387 29.3606714 0 29.3606714"></polygon>
        <polygon id="path-5" points="0.0314111589 0.0411748281 7.50982519 0.0411748281 7.50982519 7.45302569 0.0314111589 7.45302569"></polygon>
        <polygon id="path-7" points="0.0185023851 0.0632709824 8.1788584 0.0632709824 8.1788584 8.06038471 0.0185023851 8.06038471"></polygon>
        <polygon id="path-9" points="0 0.274442515 10.1231352 0.274442515 10.1231352 21.4287585 0 21.4287585"></polygon>
        <polygon id="path-11" points="0.0219837319 0.274442515 10.1448701 0.274442515 10.1448701 21.4287585 0.0219837319 21.4287585"></polygon>
        <polygon id="path-13" points="0 0.111000409 38.6497108 0.111000409 38.6497108 9.22289531 0 9.22289531"></polygon>
        <polygon id="path-15" points="0.0207055058 0.0238829098 38.7089406 0.0238829098 38.7089406 9.0984335 0.0207055058 9.0984335"></polygon>
    </defs>
    <g id="空状态" stroke="none" stroke-width="1" fill="none" fill-rule="evenodd">
        <g id="500提醒">
            <g id="插图">
                <g id="女_摊手" transform="translate(112.000000, 3.000000)">
                    <g transform="translate(0.000000, 53.000000)">
                        <g>
                            <path d="M73.3388722,153.587257 C73.1347902,142.542724 76.1586887,105.098558 76.1586887,105.098558 C76.1586887,105.098558 81.1462547,78.4079509 73.9237415,76.2140087 C73.9237415,76.2140087 55.0693816,76.7385929 56.6514322,104.956397 C56.6514322,104.956397 57.1234756,133.313868 55.8467185,151.318493 C55.8467185,151.318493 55.2917149,160.748537 63.8656494,161.385354 C73.0003947,162.063738 73.3388722,153.587257 73.3388722,153.587257" id="Fill-1" fill="#FFC6A0"></path>
                            <path d="M145.08242,153.129929 C142.706441,142.343116 131.038091,106.642299 131.038091,106.642299 C131.038091,106.642299 119.968715,81.8571538 126.47943,78.0337586 C126.47943,78.0337586 144.933921,74.1305535 149.973752,101.937669 C149.973752,101.937669 156.12359,129.621744 161.560801,146.8291 C161.560801,146.8291 164.299316,155.869239 156.111146,158.494654 C147.387054,161.292159 145.08242,153.129929 145.08242,153.129929" id="Fill-3" fill="#FFC6A0"></path>
                            <g id="编组" transform="translate(69.686550, 0.422328)">
                                <mask id="mask-2" fill="white">
                                    <use xlink:href="#path-1"></use>
                                </mask>
                                <g id="Clip-6"></g>
                                <path d="M19.5225212,79.255599 C11.2140592,79.7934848 -5.61690188,76.2934861 2.73884735,54.423067 C8.6970474,38.8252107 2.8077043,0.719287135 29.5515772,2.87249296 C33.4590016,-1.43475004 45.8333419,-0.455415502 52.0702882,8.69945034 C59.8585898,20.1305623 58.7120801,32.8411275 65.3057551,56.910477 C71.4771628,76.2610634 57.5556152,79.4567866 50.5214216,79.4567866 C38.0317667,79.4567866 26.4803914,79.7934848 19.5225212,79.255599" id="Fill-5" fill="#2B0849" mask="url(#mask-2)"></path>
                            </g>
                            <path d="M124.832504,75.8694958 C122.585943,75.1620139 120.409897,74.4237719 118.053828,73.4045324 C116.503302,72.7344614 114.726295,71.4267422 114.614299,69.054059 L113.937344,51.4235432 L93.024742,51.4567973 L92.6232147,68.3191424 C92.5385953,70.0126097 91.818501,71.5730604 90.2547016,72.2181908 C87.7783402,73.2399244 84.7171096,73.6980002 82.303798,74.4221092 C82.303798,74.4221092 93.3930852,81.5634366 106.92555,81.5634366 C120.458844,81.5634366 124.832504,75.8694958 124.832504,75.8694958" id="Fill-7" fill="#FFB48A"></path>
                            <path d="M86.1458498,36.6079076 C86.1458498,36.6079076 82.8639452,33.3988827 80.5551634,35.8147962 C78.5583119,37.9031565 80.4821584,48.2293995 87.7113084,48.1312998 L86.1458498,36.6079076 Z" id="Fill-9" fill="#FFB69C"></path>
                            <path d="M119.928645,36.6079076 C119.928645,36.6079076 123.21055,33.3988827 125.519332,35.8147962 C127.516183,37.9031565 125.592336,48.2293995 118.363186,48.1312998 L119.928645,36.6079076 Z" id="Fill-11" fill="#FFB69C"></path>
                            <path d="M122.413385,35.724345 C123.282808,19.5071303 117.392635,8.30380916 103.066242,8.30380916 C88.1624459,8.30380916 83.3855988,20.3642558 84.2906943,35.724345 C84.2906943,35.724345 84.3653585,46.3872862 91.6426254,54.5528413 C94.3645489,57.6072344 98.6992182,61.4430999 103.434585,61.567803 C108.231343,61.692506 112.971687,58.2839562 116.286776,53.8711313 C119.849916,49.1274277 122.022643,43.015316 122.413385,35.724345" id="Fill-13" fill="#FFC6A0"></path>
                            <path d="M92.4083478,31.1941329 C91.5986565,31.1941329 90.7333818,31.1691923 89.8208199,31.1109976 C89.4898087,31.0893824 89.239269,30.8033967 89.260009,30.4708553 C89.2799195,30.1391452 89.5553473,29.8864137 89.8988024,29.9088602 C95.095428,30.2438957 98.8062368,29.4092167 98.8427393,29.4009032 C99.1654544,29.3260814 99.4881695,29.5289317 99.5628337,29.8531596 C99.6366682,30.1773875 99.435075,30.4999527 99.1115303,30.5747745 C98.9812828,30.6047032 96.3721852,31.1941329 92.4083478,31.1941329" id="Fill-15" fill="#2B0849"></path>
                            <path d="M105.095448,44.6485933 L102.15368,44.6485933 C101.9048,44.6485933 101.703206,44.4465744 101.703206,44.1971683 C101.703206,43.9477622 101.9048,43.7457433 102.15368,43.7457433 L104.639167,43.7457433 L104.522193,34.4611863 C104.521364,34.3955094 104.534637,34.3298324 104.561184,34.269975 L106.387968,30.2046559 C106.490838,29.976865 106.75797,29.8771025 106.982792,29.9785277 C107.210103,30.0807842 107.311314,30.3476487 107.209273,30.5754396 L105.42397,34.5493098 L105.545922,44.1913488 C105.547581,44.3118951 105.500294,44.4282846 105.416504,44.513914 C105.331055,44.6003748 105.21657,44.6485933 105.095448,44.6485933" id="Fill-17" fill="#DB836E"></path>
                            <path d="M108.355534,47.8987702 C103.956985,48.3161097 98.847468,48.0292927 98.847468,48.0292927 C98.847468,48.0292927 99.8977439,51.3671774 103.787747,51.3671774 C107.678579,51.3671774 108.355534,47.8987702 108.355534,47.8987702" id="Fill-19" fill="#FFFFFF"></path>
                            <path d="M99.8285551,48.6734255 C100.375263,49.5372019 101.54666,50.7651111 103.787415,50.7651111 C106.034806,50.7651111 107.050239,49.4607173 107.479972,48.5761571 C104.512487,48.7906463 101.389866,48.7274635 99.8285551,48.6734255 M103.787415,51.9689112 C99.50584,51.9689112 98.2863254,48.2477724 98.274711,48.2103615 C98.2158092,48.0216443 98.2523117,47.8162999 98.372604,47.6600055 C98.4937258,47.503711 98.7011263,47.4180816 98.8803203,47.4280578 C98.930926,47.4305519 103.998134,47.7073926 108.298789,47.299198 C108.487109,47.2800769 108.67294,47.3540673 108.800698,47.4945661 C108.928457,47.6350648 108.981552,47.8279389 108.945049,48.0141621 C108.677917,49.3825701 107.25598,51.9689112 103.787415,51.9689112" id="Fill-21" fill="#C44343"></path>
                            <path d="M113.392296,38.0101517 C113.060455,38.0101517 112.790834,37.7407931 112.790834,37.4082517 C112.790834,36.2934065 112.163655,35.3514829 111.420332,35.3514829 C110.677009,35.3514829 110.049,36.2934065 110.049,37.4082517 C110.049,37.7407931 109.780209,38.0101517 109.447539,38.0101517 C109.115698,38.0101517 108.846907,37.7407931 108.846907,37.4082517 C108.846907,35.6100338 110.000883,34.1476828 111.420332,34.1476828 C112.838951,34.1476828 113.993757,35.6100338 113.993757,37.4082517 C113.993757,37.7407931 113.724136,38.0101517 113.392296,38.0101517" id="Fill-23" fill="#2B0849"></path>
                            <path d="M96.6511803,38.0101517 C96.3193396,38.0101517 96.049719,37.7407931 96.049719,37.4082517 C96.049719,36.2934065 95.42254,35.3514829 94.6792168,35.3514829 C93.9367232,35.3514829 93.3087147,36.2934065 93.3087147,37.4082517 C93.3087147,37.7407931 93.0390941,38.0101517 92.7072534,38.0101517 C92.3754126,38.0101517 92.1057921,37.7407931 92.1057921,37.4082517 C92.1057921,35.6100338 93.2605978,34.1476828 94.6792168,34.1476828 C96.0978359,34.1476828 97.2526416,35.6100338 97.2526416,37.4082517 C97.2526416,37.7407931 96.983021,38.0101517 96.6511803,38.0101517" id="Fill-25" fill="#2B0849"></path>
                            <path d="M104.221297,62.0498218 C100.574367,62.0498218 96.9448593,60.0578986 94.7638362,58.1940038 C94.6377367,58.0859278 94.6228039,57.8963792 94.7306521,57.7700134 C94.8376708,57.6436477 95.02682,57.627852 95.153749,57.7359279 C97.2534712,59.529989 100.737799,61.4479218 104.221297,61.4479218 C107.082593,61.4479218 109.753911,59.4036233 112.11081,57.599586 C112.241057,57.4998235 112.431036,57.5239328 112.532247,57.6569494 C112.632629,57.7891346 112.606911,57.9778518 112.475005,58.0784456 C110.042612,59.9398463 107.285016,62.0498218 104.221297,62.0498218" id="Fill-27" fill="#DB836E"></path>
                            <path d="M87.5879466,22.240039 C87.9098321,22.0596352 89.0214985,22.1095165 89.0214985,22.1095165 L86.9375388,24.5894442 L87.8484416,24.7199668 C87.8484416,24.7199668 84.5847882,27.4750726 85.1713166,36.0895586 C85.2891201,37.8270876 85.3737395,39.6003648 84.4620071,38.2951397 C76.1162131,16.4637942 88.5743432,4.14063974 104.578191,4.14313342 C123.333829,4.14645922 128.848192,25.3792302 127.502578,43.3015511 C112.133375,48.5224517 114.114464,27.2107021 112.183151,21.4569039 C109.35255,13.0194962 100.483277,18.5854085 100.483277,18.5854085 L96.7060999,17.4107059 L96.8355178,18.8464536 C96.8355178,18.8464536 92.8633844,18.2262638 91.1046286,18.7159311 C88.760174,21.2607044 87.5879466,22.240039 87.5879466,22.240039" id="Fill-29" fill="#2B0849"></path>
                            <path d="M115.86567,31.1121614 C115.835805,31.1121614 115.805109,31.1096674 115.775244,31.1055106 C111.476247,30.450404 107.11586,30.5875773 107.072721,30.5900714 C106.744199,30.5992163 106.462964,30.339834 106.452179,30.0081239 C106.441394,29.6755824 106.701059,29.397079 107.0329,29.3862714 C107.215412,29.3796205 111.543445,29.2424472 115.954438,29.9150123 C116.28296,29.9648935 116.508612,30.271663 116.458836,30.600879 C116.413207,30.8985036 116.15769,31.1121614 115.86567,31.1121614" id="Fill-31" fill="#2B0849"></path>
                            <path d="M104.972252,54.192117 L102.096023,54.192117 C101.847142,54.192117 101.645549,53.990098 101.645549,53.740692 C101.645549,53.4912859 101.847142,53.2892669 102.096023,53.2892669 L104.972252,53.2892669 C105.221133,53.2892669 105.422726,53.4912859 105.422726,53.740692 C105.422726,53.990098 105.221133,54.192117 104.972252,54.192117" id="Fill-33" fill="#DB836E"></path>
                            <path d="M145.310063,186.909988 C143.81512,181.425548 135.183114,165.162609 130.283486,157.140878 C128.23271,153.785535 127.594746,149.757627 128.50316,145.930075 L133.031127,126.871293 C133.031127,126.871293 137.189921,117.746356 136.964269,109.835195 C136.738617,101.924034 134.48293,95.8218991 134.48293,95.8218991 L135.574686,80.4460142 C135.563901,79.4192925 134.842148,78.5430458 133.835841,78.3468464 C131.905357,77.9710746 125.705743,75.9483913 121.944329,74.7612183 C107.755649,70.2810538 91.0549355,72.8707202 85.1805252,73.9132377 C80.2112105,74.7953038 76.1337177,75.5709567 73.8050255,76.0223817 C72.5813628,76.2593175 71.7783083,76.8919776 71.7783083,78.6053974 L74.0364844,100.794225 C74.0812829,101.800994 70.6533683,110.739708 73.8929633,116.604076 L82.7033343,146.14207 C83.6523987,149.32366 83.5171736,152.737198 82.3042958,155.827339 C77.3291739,168.507976 72.3424375,179.826024 70.6152066,187.991579 C65.0328161,214.384561 87.0952461,225.557954 110.120014,225.557954 C145.355691,225.557954 150.612048,206.366987 145.310063,186.909988" id="Fill-35" fill="#FFB48A"></path>
                            <path d="M106.425714,220.813585 C106.425714,220.813585 107.68588,237.641013 106.323673,303.465097 C105.636763,336.666035 106.966615,453.054707 106.966615,453.054707 L92.587127,453.3939 C92.587127,453.3939 84.3956389,398.965179 77.4842264,363.694172 C72.0743932,336.080762 81.249789,313.901079 79.1956949,303.431843 C62.7314178,219.529144 68.9550904,194.883666 70.5504147,190.424286 C70.7312679,189.920485 71.1701272,189.560509 71.7002428,189.490675 C76.2879407,188.890438 98.8107996,187.708253 106.425714,220.813585" id="Fill-37" fill="#FFC6A0"></path>
                            <path d="M141.854689,370.585095 C134.051454,336.374063 134.941617,335.642472 130.064388,313.161008 C125.187159,290.679544 113.152955,223.999997 113.152955,223.999997 C120.950383,177.416761 145.70487,187.926733 145.70487,187.926733 C145.70487,187.926733 157.224721,215.494418 157.046356,298.54498 C157.001558,319.165044 166.80911,338.829882 168.766141,362.531773 C170.614494,384.900173 172.60139,425.592438 173.728819,450.229601 C164.409072,454.579243 160.083529,451.698603 160.083529,451.698603 C160.083529,451.698603 148.24677,398.610025 141.854689,370.585095" id="Fill-39" fill="#FFC6A0"></path>
                            <path d="M121.567523,55.3595868 C121.235683,55.3595868 120.966062,55.0902283 120.966062,54.7576868 L120.966062,46.1124407 C120.966062,45.7798993 121.235683,45.5105407 121.567523,45.5105407 C121.899364,45.5105407 122.168985,45.7798993 122.168985,46.1124407 L122.168985,54.7576868 C122.168985,55.0902283 121.899364,55.3595868 121.567523,55.3595868" id="Fill-49" fill="#FAD024"></path>
                            <path d="M85.0286251,55.3595868 C84.6967844,55.3595868 84.4271638,55.0902283 84.4271638,54.7576868 L84.4271638,46.1124407 C84.4271638,45.7798993 84.6967844,45.5105407 85.0286251,45.5105407 C85.3604658,45.5105407 85.6300864,45.7798993 85.6300864,46.1124407 L85.6300864,54.7576868 C85.6300864,55.0902283 85.3604658,55.3595868 85.0286251,55.3595868" id="Fill-51" fill="#FAD024"></path>
                            <path d="M77.1943636,127.088443 C77.0732417,127.088443 76.9579271,127.013621 76.9131286,126.892243 C74.6673965,120.862436 73.5515821,116.848661 73.0621171,113.038567 C72.2009904,106.356978 73.5988694,98.3593565 73.7316057,97.6277654 L72.3868212,89.5777685 C72.3594443,89.4139918 72.470611,89.2585287 72.6340425,89.231094 C72.8007925,89.202828 72.9526096,89.3142294 72.9799865,89.478006 L74.333067,97.5803782 C74.3388742,97.6152951 74.3380446,97.6510433 74.3314078,97.6859601 C74.3156454,97.7690955 72.7717564,106.084294 73.6577711,112.961251 C74.141429,116.723126 75.2472882,120.697828 77.4755986,126.681911 C77.5336707,126.837374 77.4540289,127.011127 77.299723,127.069322 C77.2648797,127.081792 77.2292068,127.088443 77.1943636,127.088443" id="Fill-53" fill="#DB836E"></path>
                            <path d="M132.791455,127.54045 C132.754123,127.54045 132.715961,127.532968 132.678629,127.518835 C132.525153,127.456483 132.451318,127.281068 132.512709,127.126436 C135.303489,120.191284 136.316433,116.876677 136.438384,112.08808 C136.575269,106.770743 133.772044,96.6822669 133.743008,96.5808418 C133.733053,96.5425995 133.729734,96.5035259 133.734712,96.4636209 L134.636489,89.0047164 C134.6564,88.8401084 134.78167,88.7187308 134.970819,88.7420087 C135.13508,88.7619612 135.252883,88.9124362 135.232143,89.0770442 L134.337833,96.4769226 C134.591691,97.3922429 137.173412,106.849721 137.039016,112.103045 C136.914576,116.983922 135.890847,120.341759 133.070201,127.351733 C133.022914,127.468953 132.910918,127.54045 132.791455,127.54045" id="Fill-55" fill="#DB836E"></path>
                            <path d="M75.1074173,174.19751 L139.868622,174.19751 C139.868622,174.19751 143.562839,181.656415 145.817696,188.097742 C136.232477,188.776127 115.875708,197.081349 113.210198,225.392265 L106.798206,225.392265 C106.798206,225.392265 104.673595,190.195248 70.4276336,189.113657 C71.7243012,182.220073 75.1074173,174.19751 75.1074173,174.19751" id="Fill-65" fill="#2B0849"></path>
                            <path d="M108.60259,119.612579 L99.4678443,119.612579 C98.7236915,119.612579 98.1139341,119.002365 98.1139341,118.256641 C98.1139341,117.510086 98.7236915,116.899872 99.4678443,116.899872 L108.60259,116.899872 C109.346742,116.899872 109.95567,117.510086 109.95567,118.256641 C109.95567,119.002365 109.346742,119.612579 108.60259,119.612579" id="Fill-67" fill="#2B0849"></path>
                            <path d="M73.2513492,104.069924 L101.662722,117.010775 C101.99871,117.164575 102.119832,117.57942 101.918239,117.889515 C100.029236,120.795927 90.1644409,133.343547 77.8149887,126.563027 C70.4389992,122.512673 71.9820585,108.015529 72.4051554,104.537976 C72.4549315,104.133939 72.8821764,103.90116 73.2513492,104.069924" id="Fill-69" fill="#2B0849"></path>
                            <path d="M135.374254,105.079936 L106.572139,117.40891 C106.572139,117.40891 116.045362,135.547383 131.439453,126.562944 C138.714231,122.31639 136.845968,108.722927 136.212982,105.504758 C136.137488,105.123166 135.727664,104.918653 135.374254,105.079936" id="Fill-71" fill="#2B0849"></path>
                            <path d="M85.7828991,72.5572168 C85.7828991,72.5572168 89.3983037,77.25769 96.0633244,79.8465252 C103.519785,82.7437925 115.347418,81.5416551 119.915205,73.6870263 C128.485822,76.8519895 135.104385,78.3209913 135.104385,78.3209913 L136.154661,91.204478 C136.154661,91.204478 139.767576,103.026326 138.522344,114.258745 C137.168434,126.464678 132.28125,151.588184 132.28125,151.588184 C132.28125,151.588184 135.979615,158.520842 130.589692,160.063834 C97.2463366,161.837111 81.4971762,157.012766 81.4971762,157.012766 C81.4971762,157.012766 76.687145,152.530939 80.2959128,148.462295 C75.5945595,130.193299 72.8875688,127.142231 71.8721363,116.971452 C70.9255606,107.482382 73.6765201,88.6048353 73.6765201,88.6048353 L71.2308541,76.0996145 L85.7828991,72.5572168 Z" id="Fill-73" fill="#E5E3EA"></path>
                            <path d="M71.2308541,76.0996145 C71.2308541,76.0996145 56.0839846,77.3034145 53.8282973,99.9062562 C53.7826692,101.666232 53.8432302,101.355305 53.8282973,102.618132 C53.8133645,104.014806 52.9182242,106.937014 52.9265202,107.817417 C52.9480898,110.027986 53.6034752,112.337487 53.6034752,112.337487 L50.7313938,144.850063 C50.6326712,145.968234 51.3121151,147.006594 52.378983,147.347449 C54.8163531,148.127259 59.156,149.715976 61.9492692,151.891628 C64.9067996,154.197803 70.9794847,153.683195 74.0564778,153.234264 C75.1581889,153.073813 75.9969163,152.176782 76.0939798,151.066094 L78.639198,122.056841 C78.639198,122.056841 83.2202591,81.6763344 71.2308541,76.0996145" id="Fill-75" fill="#E5E3EA"></path>
                            <path d="M128.034269,119.796474 L136.172663,155.56962 C136.374256,156.455843 137.108454,157.124251 138.01106,157.214037 C140.367959,157.447647 145.113281,157.401092 149.687706,154.265226 C154.071321,151.259883 159.294494,149.252164 162.172383,148.27948 C163.38775,147.869623 164.059727,146.581024 163.717102,145.343139 C162.105185,139.528652 157.653542,119.75075 154.76238,105.443986 C155.889809,101.375341 152.973758,101.442681 152.619518,99.115722 C149.687706,79.9031403 134.21978,78.3210744 135.104136,78.3210744 C135.104136,78.3210744 123.298073,91.3176253 128.034269,119.796474" id="Fill-77" fill="#E5E3EA"></path>
                            <path d="M119.637787,80.6247553 C119.500902,80.6247553 119.365677,80.5624037 119.27691,80.4435202 C119.128411,80.2439953 119.169062,79.9613351 119.368166,79.8116914 C121.154299,78.4715494 122.099215,77.3625237 122.108341,77.3508848 C122.269284,77.1613362 122.553007,77.1380583 122.742986,77.2976782 C122.932965,77.4589608 122.957023,77.7432837 122.79691,77.9336637 C122.75626,77.9818822 121.784796,79.1266561 119.907407,80.5349691 C119.826936,80.5956579 119.731532,80.6247553 119.637787,80.6247553" id="Fill-79" fill="#C2C0CC"></path>
                            <path d="M104.326573,85.6656678 C103.483698,85.6656678 102.633356,85.6274256 101.774718,85.5517724 C98.6902585,85.2774257 95.4066946,84.3263572 92.0144529,82.7235074 C91.7896308,82.6179255 91.6925674,82.348567 91.7987564,82.1232701 C91.9057751,81.8971419 92.1778845,81.8015363 92.3985585,81.9071182 C95.6945664,83.4642435 98.8760893,84.387046 101.85436,84.6522478 C106.496811,85.0637678 110.901167,84.3230318 114.945476,82.4499921 C115.167809,82.3452415 115.438259,82.4441726 115.543619,82.6703008 C115.647319,82.896429 115.548596,83.1649562 115.322945,83.2697067 C111.883416,84.8625802 108.194177,85.6656678 104.326573,85.6656678" id="Fill-81" fill="#C2C0CC"></path>
                            <path d="M87.9281663,80.4228195 C87.8468654,80.4228195 87.7647348,80.4003729 87.6909002,80.3546485 C85.0842914,78.7276895 83.4873079,77.3651009 83.4201102,77.3077375 C83.2317906,77.1456236 83.210221,76.8604693 83.3711637,76.6709207 C83.532936,76.4822034 83.8183191,76.4597569 84.0058091,76.6210395 C84.0224011,76.6351725 85.6235326,77.9994237 88.1670916,79.5881405 C88.3786401,79.7203257 88.4425194,79.9988291 88.3114424,80.209993 C88.2259934,80.3471663 88.0791539,80.4228195 87.9281663,80.4228195" id="Fill-83" fill="#C2C0CC"></path>
                            <path d="M131.58679,153.1912 C131.546969,153.1912 131.506319,153.186212 131.465668,153.174573 C131.225913,153.108065 131.085711,152.85949 131.152908,152.619229 C131.216788,152.38645 137.60804,129.286459 139.105471,124.3 C142.184123,114.052735 137.35833,100.64799 137.309383,100.513311 C137.291132,100.464261 137.282006,100.411054 137.282006,100.357847 L137.282006,91.9952616 C137.282006,91.7458555 137.4836,91.5438366 137.73248,91.5438366 C137.981361,91.5438366 138.182954,91.7458555 138.182954,91.9952616 L138.182954,100.278869 C138.620984,101.500127 143.04525,114.320431 139.969087,124.560213 C138.474144,129.537527 132.085381,152.627542 132.020672,152.860321 C131.965918,153.059846 131.784235,153.1912 131.58679,153.1912" id="Fill-85" fill="#C2C0CC"></path>
                            <path d="M118.109826,160.70672 C118.048436,160.70672 117.985386,160.694249 117.924825,160.666815 C117.698344,160.56539 117.597132,160.297694 117.699173,160.069903 L125.593664,142.440218 C125.694875,142.212428 125.962007,142.111002 126.188488,142.213259 C126.415799,142.315515 126.517011,142.58238 126.41497,142.810171 L118.520479,160.439855 C118.445815,160.607789 118.281554,160.70672 118.109826,160.70672" id="Fill-87" fill="#C2C0CC"></path>
                            <path d="M113.837045,161.215342 C95.4522398,161.215342 81.7397518,157.350379 81.5605578,157.298835 C81.5033153,157.283039 81.4510504,157.255605 81.4045927,157.219025 C81.3523277,157.177457 76.1880566,152.999074 79.9411751,148.184706 C80.0929922,147.987675 80.3783752,147.953589 80.5725021,148.106558 C80.7691177,148.260359 80.803961,148.54385 80.6504846,148.74005 C77.6299045,152.61582 81.3208029,155.969501 81.8965465,156.455011 C83.4993372,156.897291 106.336615,162.977812 132.204429,158.929951 C132.692234,158.352991 134.706508,155.577933 131.920705,151.859288 C131.771377,151.659764 131.811197,151.377103 132.010302,151.22746 C132.209406,151.077816 132.490641,151.117721 132.641629,151.317246 C136.187347,156.050142 132.790128,159.630782 132.755284,159.66653 C132.687257,159.736364 132.598489,159.782088 132.503085,159.797053 C125.998178,160.824606 119.68159,161.215342 113.837045,161.215342" id="Fill-89" fill="#C2C0CC"></path>
                            <path d="M97.360075,159.124404 C97.2215315,159.124404 97.0846472,159.06039 96.9967094,158.939844 L88.0867862,146.73391 C87.9407763,146.532723 87.9839156,146.250063 88.1846792,146.102913 C88.3854428,145.955763 88.6666778,145.998994 88.814347,146.201013 L97.7234406,158.406115 C97.8702801,158.607303 97.8263112,158.889963 97.6255476,159.037112 C97.5459058,159.096138 97.4521608,159.124404 97.360075,159.124404" id="Fill-91" fill="#C2C0CC"></path>
                            <path d="M71.2769799,149.150738 C68.3136423,149.150738 63.8968424,148.760834 62.0576152,146.60929 C59.447688,143.557391 52.8100441,140.581146 52.7428463,140.551217 C52.5155355,140.449792 52.4134944,140.183759 52.5147059,139.955136 C52.6159173,139.727345 52.8813898,139.625089 53.1095303,139.726514 C53.3891061,139.850386 60.0002028,142.816655 62.7412071,146.021524 C65.2656854,148.972829 73.9939258,148.135656 74.0835228,148.126511 C74.3133225,148.104896 74.5522478,148.281974 74.5763062,148.530549 C74.6011943,148.779123 74.4203411,149.000263 74.1722902,149.025204 C74.0403835,149.038506 72.8673266,149.150738 71.2769799,149.150738" id="Fill-93" fill="#C2C0CC"></path>
                            <path d="M140.881732,152.773112 C138.559676,152.773112 136.810876,152.140452 136.673991,152.088908 C136.440873,152.002448 136.32224,151.743065 136.408519,151.509455 C136.495627,151.275013 136.75944,151.156961 136.987581,151.24259 C137.047312,151.265037 142.983942,153.397459 147.358433,149.520026 C152.304519,145.135467 156.381182,143.736299 158.816893,142.900788 C159.311335,142.730361 159.746876,142.581549 160.119367,142.431905 C160.350826,142.339625 160.61298,142.451857 160.705896,142.683805 C160.797982,142.914921 160.685985,143.177629 160.455356,143.270741 C160.069591,143.424541 159.619118,143.579173 159.108912,143.754589 C156.582775,144.62169 152.765777,145.931904 147.955746,150.195916 C145.657749,152.232733 143.025423,152.773112 140.881732,152.773112" id="Fill-95" fill="#C2C0CC"></path>
                            <path d="M82.0221482,152.682827 C81.832999,152.682827 81.657953,152.563112 81.5940737,152.373564 C81.5235576,152.159906 74.4686239,130.928798 73.1254986,125.211579 C71.8047726,119.584146 72.6907873,105.996503 72.7729179,104.799354 L70.4176784,94.0133724 C70.3637543,93.7697858 70.5180602,93.5286933 70.7611335,93.4754867 C71.0000588,93.4239427 71.2439618,93.5760805 71.2970563,93.8204984 L73.666399,104.669663 C73.6755246,104.711231 73.678843,104.754461 73.6755246,104.797691 C73.6655694,104.942347 72.6808321,119.373814 74.0023877,125.004572 C75.3363874,130.682717 82.378877,151.874752 82.4502228,152.08841 C82.5282053,152.325345 82.4004466,152.580571 82.1648397,152.659549 C82.1175524,152.675345 82.0694355,152.682827 82.0221482,152.682827" id="Fill-97" fill="#C2C0CC"></path>
                            <path d="M71.1967574,105.217525 C71.0490883,105.217525 70.903908,105.145197 70.818459,105.012181 C66.4165919,98.2266725 65.3787601,91.5525658 65.33728,91.2715683 C65.2999479,91.0246563 65.4700163,90.7952027 65.7155784,90.7577918 C65.9545037,90.7212122 66.1909402,90.889977 66.2282723,91.136889 C66.2373979,91.2042286 67.2843554,97.9066014 71.5733966,104.520019 C71.7094513,104.728689 71.6505496,105.008855 71.44149,105.144366 C71.3659962,105.194247 71.2805472,105.217525 71.1967574,105.217525" id="Fill-99" fill="#C2C0CC"></path>
                            <path d="M138.860407,102.844177 C138.805653,102.844177 138.75007,102.8342 138.696146,102.813417 C138.463857,102.721968 138.350202,102.460091 138.440628,102.228144 C141.413091,94.6162701 140.897909,85.3342071 140.892102,85.2419269 C140.877169,84.9925208 141.066318,84.7788629 141.315198,84.7638986 C141.536702,84.7547537 141.777287,84.9376515 141.79139,85.1870575 C141.797197,85.2818319 142.326483,94.7567688 139.280185,102.55736 C139.210499,102.735269 139.04043,102.844177 138.860407,102.844177" id="Fill-101" fill="#C2C0CC"></path>
                            <path d="M112.697172,99.6797123 C112.532081,99.6797123 112.372798,99.5882634 112.294815,99.4303062 C112.182819,99.2066721 112.273246,98.9356508 112.495579,98.8242495 C116.852648,96.6411149 126.216363,83.0609539 126.310108,82.9237805 C126.45197,82.7184362 126.732375,82.6668922 126.936457,82.8082224 C127.141369,82.9495525 127.193634,83.2313813 127.052602,83.4367257 C126.662689,84.0037088 117.460746,97.3461028 112.898765,99.6323252 C112.834056,99.664748 112.7652,99.6797123 112.697172,99.6797123" id="Fill-103" fill="#C2C0CC"></path>
                            <path d="M103.722208,81.9251586 C103.562095,81.9251586 103.399493,81.9234959 103.236062,81.9201704 C91.4075992,81.6923796 85.4659912,72.8949958 85.4070894,72.8060409 C85.2702052,72.5982025 85.3266181,72.3188677 85.5340185,72.180863 C85.741419,72.0428583 86.0218244,72.1010531 86.1587087,72.3080601 C86.214292,72.3928582 91.9128267,80.7986744 103.254313,81.0173204 C114.582525,81.2351351 119.482983,73.5276559 119.531929,73.4495086 C119.663836,73.2375134 119.940923,73.1718365 120.152472,73.3040217 C120.36402,73.4353756 120.428729,73.7130477 120.297652,73.9250429 C120.245387,74.0098409 118.984392,76.0250421 116.244218,78.0277729 C113.790255,79.8210026 109.646395,81.9251586 103.722208,81.9251586" id="Fill-105" fill="#C2C0CC"></path>
                            <path d="M108.073553,249.874049 C108.073553,234.052559 108.260213,225.275959 108.260213,225.275959 L112.809749,225.275959 L114.501307,250.213241 C140.213985,254.620247 158.821953,244.901723 158.821953,244.901723 C153.859275,210.997461 150.918337,202.597464 148.672605,193.593904 C145.288659,180.032033 135.213145,165.866599 135.213145,165.866599 L132.771627,159.689642 C105.028084,163.18964 81.524636,156.227054 81.524636,156.227054 L78.818475,164.702704 C78.818475,164.702704 70.2146748,178.142366 67.8129777,189.186067 C62.0613484,215.631426 65.4444645,230.852679 65.4444645,246.788064 C65.4444645,246.788064 71.5345713,249.49994 83.3754776,250.178324 C95.2172136,250.855878 108.073553,249.874049 108.073553,249.874049" id="Fill-107" fill="#6297CC"></path>
                            <path d="M113.486206,164.606101 C113.486206,165.448262 112.805103,166.131635 111.963887,166.131635 C111.122671,166.131635 110.441568,165.448262 110.441568,164.606101 C110.441568,163.763108 111.122671,163.080567 111.963887,163.080567 C112.805103,163.080567 113.486206,163.763108 113.486206,164.606101" id="Fill-109" fill="#FFFFFF"></path>
                            <path d="M114.980983,170.269531 C96.1357487,170.269531 80.4106468,165.610625 80.2007575,165.546611 C79.9618322,165.475115 79.8274367,165.223214 79.8987824,164.984616 C79.9709578,164.745186 80.2214975,164.608844 80.4604229,164.682003 C80.7399987,164.766801 108.7374,173.057059 134.704765,167.385565 C134.940372,167.334021 135.187594,167.486159 135.240688,167.730577 C135.293783,167.974995 135.140306,168.215256 134.896403,168.268463 C128.224746,169.724994 121.419522,170.269531 114.980983,170.269531" id="Fill-111" fill="#4670B2"></path>
                            <path d="M110.006608,223.600781 C109.763534,223.600781 109.5636,223.407907 109.556134,223.163489 L107.904397,169.877049 C107.89693,169.627643 108.091887,169.418973 108.340767,169.411491 C108.602921,169.412322 108.797878,169.599377 108.805344,169.848783 L110.457081,223.135223 C110.464548,223.384629 110.268762,223.592468 110.020711,223.600781 C110.015733,223.600781 110.011585,223.600781 110.006608,223.600781" id="Fill-113" fill="#4670B2"></path>
                            <path d="M108.25424,168.121064 C108.011166,168.121064 107.811232,167.927358 107.803766,167.68294 L107.622913,161.585793 C107.615446,161.336387 107.811232,161.128549 108.060113,161.121066 C108.064261,161.121066 108.069239,161.120235 108.073387,161.120235 C108.31646,161.120235 108.516394,161.31394 108.52386,161.558358 L108.704714,167.656337 C108.71218,167.904912 108.516394,168.113582 108.268343,168.121064 C108.263365,168.121064 108.258388,168.121064 108.25424,168.121064" id="Fill-115" fill="#4670B2"></path>
                            <path d="M109.765194,204.368579 C109.559452,204.368579 109.373621,204.227249 109.326334,204.017748 C109.269921,203.774993 109.421738,203.532238 109.664812,203.476537 C109.722054,203.463235 115.46041,202.130576 117.041631,200.546016 C118.032175,199.419531 117.287193,184.090202 116.082611,170.23902 C116.061041,169.990445 116.245213,169.771799 116.492434,169.750184 C116.725553,169.727738 116.958671,169.911467 116.98024,170.160873 C117.404167,175.033436 119.429225,199.429508 117.677935,201.184495 C115.915032,202.951122 110.111967,204.300408 109.865575,204.356941 C109.831562,204.365254 109.798378,204.368579 109.765194,204.368579" id="Fill-117" fill="#4670B2"></path>
                            <path d="M76.8063588,178.841618 C75.6225171,178.841618 74.3723072,178.588055 73.0631955,178.080098 C72.8317366,177.990312 72.7155924,177.728435 72.806019,177.495656 C72.8964456,177.263709 73.1577701,177.148151 73.389229,177.237937 C75.9054113,178.213946 78.1627577,178.165727 80.0949003,177.09245 C84.5556691,174.614185 85.964333,167.475351 85.9784362,167.403024 C86.0248939,167.157774 86.2679672,166.999817 86.5044037,167.04471 C86.7491363,167.091266 86.910079,167.32737 86.8627917,167.57262 C86.8047196,167.881883 85.3645309,175.19447 80.5337597,177.880573 C79.3814428,178.521547 78.1362105,178.841618 76.8063588,178.841618" id="Fill-125" fill="#4670B2"></path>
                            <path d="M142.613028,181.843137 C136.595926,181.843137 133.385367,178.46119 131.745244,175.595515 C129.956623,172.467962 129.629759,169.3587 129.616486,169.228177 C129.591598,168.979603 129.771621,168.758463 130.018843,168.733522 C130.259427,168.712738 130.487568,168.889816 130.512456,169.13756 C130.515774,169.16832 130.840149,172.209411 132.541662,175.171524 C134.793201,179.0872 138.304905,181.02841 142.911684,180.936961 C142.915003,180.936961 142.918321,180.936961 142.92081,180.936961 C143.165542,180.936961 143.366306,181.133161 143.371376,181.380073 C143.376261,181.628648 143.178816,181.834823 142.929935,181.839811 C142.823746,181.842305 142.717557,181.843137 142.613028,181.843137" id="Fill-127" fill="#4670B2"></path>
                            <path d="M142.598427,185.297827 C140.697809,185.297827 138.917483,184.996045 137.286486,184.396639 C137.052539,184.31101 136.933076,184.051628 137.018525,183.817186 C137.104803,183.582744 137.36281,183.463861 137.597587,183.548659 C139.552129,184.26778 141.748085,184.530487 144.123235,184.328468 C144.374604,184.307685 144.589471,184.492245 144.610211,184.74082 C144.630951,184.989395 144.447609,185.208041 144.199558,185.228824 C143.656998,185.274549 143.123564,185.297827 142.598427,185.297827" id="Fill-129" fill="#4670B2"></path>
                            <path d="M134.922204,183.181284 C134.840074,183.181284 134.757113,183.158837 134.682449,183.11145 C133.156812,182.144586 131.793776,180.860144 130.632333,179.293043 C130.483005,179.092687 130.525315,178.810026 130.724419,178.661214 C130.923523,178.513233 131.206418,178.552307 131.354916,178.754326 C132.45082,180.231641 133.732555,181.440429 135.163618,182.348267 C135.374337,182.481284 135.436557,182.760619 135.303821,182.970951 C135.217542,183.107293 135.072362,183.181284 134.922204,183.181284" id="Fill-131" fill="#4670B2"></path>
                            <path d="M129.550864,177.184813 C129.390751,177.184813 129.233956,177.098352 129.153485,176.946215 C127.921526,174.633389 127.49843,172.749542 127.481837,172.670563 C127.427913,172.426977 127.58139,172.186715 127.824463,172.132677 C128.070025,172.078639 128.30895,172.233271 128.361215,172.476026 C128.365363,172.494316 128.778505,174.324125 129.948244,176.520562 C130.065217,176.74087 129.983087,177.014386 129.763242,177.131607 C129.696045,177.167355 129.62304,177.184813 129.550864,177.184813" id="Fill-133" fill="#4670B2"></path>
                            <path d="M76.8022938,182.420096 C75.145579,182.420096 73.3403655,182.144918 71.4115413,181.597056 C71.172616,181.528885 71.0332429,181.278648 71.1012703,181.039218 C71.168468,180.799788 71.4140301,180.659289 71.6579331,180.728292 C74.208129,181.453232 76.5218884,181.67936 78.5245471,181.403351 C78.7659612,181.369265 78.9982497,181.540524 79.0322634,181.789099 C79.0662771,182.036011 78.8937199,182.263802 78.6481577,182.297887 C78.0558221,182.37936 77.4402575,182.420096 76.8022938,182.420096" id="Fill-135" fill="#4670B2"></path>
                            <path d="M80.955944,181.704883 C80.7742612,181.704883 80.6025336,181.594313 80.5345063,181.413909 C80.4465685,181.180299 80.5627128,180.919254 80.7966605,180.83113 C82.4790929,180.190156 83.906008,179.096926 85.0359256,177.579706 C85.1860835,177.37935 85.4673185,177.339445 85.6672526,177.488257 C85.866357,177.63707 85.9070075,177.920561 85.7585088,178.120086 C84.5240613,179.776974 82.9619211,180.973292 81.1152276,181.675785 C81.0629626,181.695738 81.0090385,181.704883 80.955944,181.704883" id="Fill-137" fill="#4670B2"></path>
                            <path d="M86.7745221,175.947925 C86.7123019,175.947925 86.6484226,175.934624 86.5870321,175.907189 C86.3613804,175.804101 86.2618282,175.536405 86.3646988,175.309446 C87.3519249,173.134625 87.5493702,171.193414 87.5510294,171.174293 C87.5750878,170.925718 87.8065467,170.744483 88.0421536,170.767761 C88.2902045,170.79187 88.4718873,171.012179 88.4486585,171.259922 C88.4403625,171.34472 88.2387692,173.36491 87.1843454,175.683555 C87.1088516,175.849826 86.94542,175.947925 86.7745221,175.947925" id="Fill-139" fill="#4670B2"></path>
                            <path d="M117.080871,161.289249 C97.8507015,161.289249 81.9090735,156.64032 81.7074803,156.580462 C81.4693846,156.509797 81.3325003,156.258729 81.403846,156.019299 C81.4743622,155.7807 81.7215835,155.642696 81.9638272,155.715023 C82.2160262,155.789845 107.479889,163.153975 132.702273,159.244119 C132.944516,159.20754 133.177635,159.373811 133.216626,159.620723 C133.254787,159.867635 133.086378,160.09792 132.839987,160.136162 C127.510625,160.962527 122.179604,161.289249 117.080871,161.289249" id="Fill-145" fill="#4670B2"></path>
                            <path d="M74.5792099,150.536023 C70.8576162,137.991728 58.8814848,128.075343 51.9120002,116.632592 C41.9758595,100.320603 35.2585738,89.2885405 35.2585738,89.2885405 C35.2585738,89.2885405 32.9655545,90.526426 26.6497961,95.0822438 C37.3641032,117.310145 40.6783623,135.954081 55.6327642,160.02925 C55.6327642,160.02925 62.4869342,168.730196 69.1660582,164.097063 C75.8443526,159.464761 74.5792099,150.536023 74.5792099,150.536023" id="Fill-179" fill="#FFC6A0"></path>
                            <g id="编组" transform="translate(0.000000, 67.761969)">
                                <mask id="mask-4" fill="white">
                                    <use xlink:href="#path-3"></use>
                                </mask>
                                <g id="Clip-182"></g>
                                <path d="M3.33309111,4.29843065 C10.7331391,8.88833388 19.4240474,9.53595833 19.4240474,9.53595833 C19.4240474,9.53595833 15.4602101,3.9750341 15.8127908,0.79676929 C16.0060881,-0.953230038 17.3981599,0.355320529 19.3361096,3.53358534 C20.8692137,6.04676727 24.0449294,8.14344105 27.5284273,9.88928361 C35.2802264,13.7725363 36.0724961,22.6888036 36.0724961,22.6888036 C36.4250769,28.2206305 31.0334949,30.9216983 26.9991414,28.4259748 C22.2430343,25.4838144 8.35798915,21.3727709 3.39199284,17.9509195 C-0.36610327,15.3620844 -0.864693945,14.1183794 1.86469594,15.0087591 C3.07425535,15.4028207 4.07309591,16.1709914 5.27187049,16.5974758 C6.78008655,17.1345302 8.43099411,17.3565016 9.96907583,17.4213472 C5.77046117,15.185006 2.51178534,12.4781187 0.749711137,9.41790612 C-0.0715946345,7.9921347 -0.36610327,6.35852487 0.631907683,6.47574573 C0.631907683,6.47574573 -0.36610327,4.12218369 1.92442727,4.70995069 C2.39398188,4.18037844 3.33309111,4.29843065 3.33309111,4.29843065" id="Fill-181" fill="#FFC6A0" mask="url(#mask-4)"></path>
                            </g>
                            <path d="M28.7695945,87.2918786 C24.1105509,87.2918786 22.016636,81.0168216 21.7868363,80.2785796 L19.2772909,77.4170605 C19.1628058,77.286538 19.1760794,77.0886759 19.3054973,76.9739491 C19.4340856,76.8600536 19.63319,76.8725239 19.7468455,77.0030464 L22.3011894,79.9152781 C22.3318847,79.950195 22.3551135,79.9917626 22.3667279,80.0366557 C22.3899568,80.1139716 24.6406664,87.7665815 29.9235706,86.5262019 C30.093639,86.4854656 30.2595594,86.5910475 30.2993802,86.7598123 C30.3392011,86.9285771 30.2346713,87.0973419 30.0654325,87.1364155 C29.6141292,87.2428287 29.181077,87.2918786 28.7695945,87.2918786" id="Fill-183" fill="#E59788"></path>
                            <path d="M12.3769121,82.7311559 C12.3511944,82.7311559 12.3246471,82.7278305 12.2980999,82.7211796 C10.8122831,82.3329375 5.69364004,80.7250996 2.17944686,76.3471916 C0.939192186,74.8017052 0.493696025,74.5198764 0.474615184,74.5090688 C0.330264472,74.4201139 0.279658763,74.2305653 0.364278146,74.0825844 C0.448897528,73.9354348 0.631409922,73.8805655 0.780738244,73.9620381 C0.866187229,74.0085939 1.35731149,74.3220142 2.66725271,75.9539613 C6.06198324,80.1830571 11.0171947,81.7385197 12.4557242,82.1142915 C12.6233038,82.1583532 12.722856,82.3287807 12.6797167,82.4967142 C12.6423846,82.6380443 12.5162852,82.7311559 12.3769121,82.7311559" id="Fill-185" fill="#E59788"></path>
                            <path d="M13.962364,79.9064658 C13.9391352,79.9064658 13.9150767,79.9039717 13.8910183,79.8981522 C13.6720034,79.8466083 8.50192506,78.618699 5.74598792,76.3025479 C4.10918358,74.9266577 2.22681712,73.1292712 2.20690668,73.1109814 C2.08246641,72.9912665 2.0774888,72.7934044 2.19695146,72.66787 C2.31558452,72.5423356 2.51468894,72.5381788 2.63995882,72.6570624 C2.65821005,72.6753521 4.52647329,74.459437 6.14751518,75.8220255 C8.79145609,78.0434023 13.9806153,79.2754684 14.0337098,79.2879387 C14.2012894,79.3270123 14.3066488,79.4957771 14.2668279,79.6637105 C14.2328142,79.8091974 14.1050555,79.9064658 13.962364,79.9064658" id="Fill-187" fill="#E59788"></path>
                            <path d="M11.4079372,85.2029364 C11.3664571,85.2029364 11.324977,85.1946229 11.2859857,85.1779958 C11.1258726,85.1098248 11.052038,84.9260957 11.1200653,84.7664758 C11.2154696,84.5428416 13.4777936,79.2753852 16.1673626,77.4779988 C16.3108837,77.3832244 16.5058402,77.4214667 16.6012444,77.5652909 C16.6974782,77.7091151 16.6584869,77.9036518 16.5141362,78.0000888 C13.9805323,79.6927247 11.7182082,84.9593498 11.695809,85.0125564 C11.6452033,85.13144 11.529059,85.2029364 11.4079372,85.2029364" id="Fill-189" fill="#E59788"></path>
                            <path d="M26.1187679,88.3807855 C26.0382966,88.3807855 25.9586548,88.3500255 25.8972643,88.2885053 C24.0605259,86.4478884 17.870867,85.8252046 17.8078172,85.8193851 C17.63526,85.802758 17.5099902,85.6489576 17.5274118,85.4768674 C17.5431742,85.3047772 17.6949914,85.1767488 17.8683781,85.1950385 C18.1321915,85.2208105 24.3450793,85.8468198 26.3402716,87.8453938 C26.4622231,87.9676028 26.4622231,88.1662963 26.3402716,88.2885053 C26.2788811,88.3500255 26.1992393,88.3807855 26.1187679,88.3807855" id="Fill-191" fill="#E59788"></path>
                            <path d="M138.236546,152.757317 C141.95814,140.213022 153.934271,130.296636 160.903756,118.853885 C170.839897,102.541896 177.557182,91.5098342 177.557182,91.5098342 C177.557182,91.5098342 179.850202,92.7477197 186.16596,97.3035375 C175.451653,119.531439 172.137394,138.175374 157.182992,162.250543 C157.182992,162.250543 150.328822,170.95149 143.649698,166.318357 C136.971403,161.686054 138.236546,152.757317 138.236546,152.757317" id="Fill-193" fill="#FFC6A0"></path>
                            <path d="M211.230138,72.6622168 C203.583698,77.4059204 194.602429,78.0743287 194.602429,78.0743287 C194.602429,78.0743287 198.699003,72.3280126 198.334808,69.0441659 C198.134044,67.2351405 196.695515,68.5877528 194.693686,71.8715995 C193.109976,74.4687481 189.827242,76.636087 186.227599,78.4392929 C178.217794,82.4530681 177.398977,91.6661287 177.398977,91.6661287 C177.033952,97.382516 182.605558,100.17337 186.774307,97.5953426 C191.689698,94.5542511 206.037661,90.3060342 211.169577,86.7702873 C215.052943,84.0949915 215.568126,82.8097188 212.74748,83.7300272 C211.4981,84.1373905 210.466075,84.9313332 209.227479,85.3719506 C207.667828,85.9272948 205.962167,86.1550857 204.37265,86.2232567 C208.711467,83.9120937 212.07965,81.1145888 213.900626,77.9529511 C214.748479,76.4789611 215.052943,74.790482 214.021748,74.9126909 C214.021748,74.9126909 215.052943,72.4801503 212.686919,73.0878698 C212.200772,72.5408391 211.230138,72.6622168 211.230138,72.6622168" id="Fill-195" fill="#FFC6A0"></path>
                            <path d="M184.94545,88.4019019 C184.519035,88.4019019 184.073538,88.3511894 183.605643,88.2414507 C183.431427,88.2007143 183.323578,88.0261301 183.364229,87.8523772 C183.405709,87.6777929 183.574948,87.5688856 183.753312,87.6104533 C189.197159,88.8924005 191.538295,80.9845651 191.561524,80.9039238 C191.574798,80.8581994 191.598027,80.8158003 191.629551,80.7792208 L194.268515,77.7688894 C194.387148,77.6350414 194.592889,77.6217398 194.724796,77.739792 C194.859191,77.8578442 194.872465,78.0623572 194.754661,78.1970365 L192.161326,81.1549926 C191.923231,81.9173438 189.758799,88.4010706 184.94545,88.4019019" id="Fill-197" fill="#E59788"></path>
                            <path d="M201.885006,83.6892078 C201.741485,83.6892078 201.610408,83.5927708 201.572246,83.4464525 C201.526618,83.273531 201.630318,83.0964527 201.802875,83.0515596 C203.289522,82.6633174 208.410654,81.0563109 211.919039,76.685885 C213.27295,74.9998999 213.779836,74.675672 213.867774,74.6274535 C214.023739,74.5434868 214.220355,74.6000189 214.306633,74.757976 C214.389594,74.9126078 214.33484,75.1063132 214.183023,75.1936053 C214.152328,75.2118951 213.687751,75.5161705 212.422608,77.0915856 C208.790611,81.6166432 203.50107,83.2776877 201.967136,83.6784002 C201.93893,83.6858824 201.911553,83.6892078 201.885006,83.6892078" id="Fill-199" fill="#E59788"></path>
                            <path d="M200.246045,80.7703253 C200.098375,80.7703253 199.965639,80.6689001 199.930796,80.5200878 C199.890145,80.3455036 199.998823,80.1717507 200.17221,80.1310144 C200.226964,80.1177127 205.592828,78.8432476 208.322218,76.5495431 C209.997184,75.1412301 211.928497,73.2972878 211.947578,73.278998 C212.076996,73.1559577 212.281078,73.1601144 212.404688,73.2898056 C212.528299,73.4194967 212.523321,73.6248411 212.393904,73.7478814 C212.373993,73.7661712 210.427747,75.6242465 208.737019,77.0458612 C205.889826,79.4393282 200.545531,80.7088051 200.319879,80.7620117 C200.294991,80.7678312 200.270103,80.7703253 200.246045,80.7703253" id="Fill-201" fill="#E59788"></path>
                            <path d="M202.886335,86.2432923 C202.761065,86.2432923 202.641603,86.1693018 202.589338,86.0462615 C202.565279,85.9913922 200.227461,80.5493515 197.610068,78.8001835 C197.46074,78.7004211 197.420919,78.5000649 197.519641,78.3512526 C197.619193,78.2024403 197.819957,78.1608726 197.967626,78.260635 C200.746792,80.117879 203.08544,85.5615823 203.183333,85.7918673 C203.253849,85.9564753 203.177525,86.1468553 203.013264,86.2175203 C202.971784,86.2349788 202.928645,86.2432923 202.886335,86.2432923" id="Fill-203" fill="#E59788"></path>
                            <path d="M187.684546,89.5268896 C187.601586,89.5268896 187.519455,89.4952982 187.456406,89.4321153 C187.329477,89.3057496 187.329477,89.1004052 187.456406,88.9740395 C189.517136,86.9089571 195.937425,86.262164 196.209534,86.2355607 C196.419423,86.2164396 196.546352,86.3494562 196.562944,86.5265345 C196.581196,86.7044441 196.450119,86.8624013 196.273413,86.8798597 C196.207875,86.8865106 189.810815,87.5308096 187.912687,89.4321153 C187.849637,89.4952982 187.767506,89.5268896 187.684546,89.5268896" id="Fill-205" fill="#E59788"></path>
                        </g>
                    </g>
                </g>
                <g id="编组" transform="translate(42.000000, 190.000000)">
                    <g transform="translate(24.674432, 14.906051)">
                        <mask id="mask-6" fill="white">
                            <use xlink:href="#path-5"></use>
                        </mask>
                        <g id="Clip-2"></g>
                        <path d="M7.4900088,4.12527958 C7.27923672,6.16106638 5.44326614,7.64241495 3.38923263,7.43351524 C1.33453631,7.22461553 -0.160089565,5.40495453 0.0513453145,3.36851082 C0.262117389,1.33272402 2.09808797,-0.14862456 4.15212149,0.0609320682 C6.206155,0.269831779 7.70078087,2.08949278 7.4900088,4.12527958" id="Fill-1" fill="#E4E6EF" mask="url(#mask-6)"></path>
                    </g>
                    <path d="M56.1828971,5.46181665 C55.9704214,7.50887692 54.119611,8.99842868 52.0489752,8.78837215 C49.9776711,8.57831563 48.4709645,6.74791744 48.6834402,4.70085717 C48.896584,2.65379691 50.7473944,1.16424515 52.8180303,1.37496223 C54.8886662,1.5843582 56.3953728,3.41475639 56.1828971,5.46181665" id="Fill-3" fill="#E4E6EF"></path>
                    <path d="M7.51936086,4.10695435 C7.30708136,6.15422231 5.45563495,7.64314446 3.38452541,7.43330862 C1.31403116,7.22286456 -0.192845626,5.3933393 0.020049176,3.34607134 C0.232328675,1.29880338 2.08377509,-0.190118776 4.15426933,0.0197170663 C6.22537887,0.229552909 7.73225566,2.05968639 7.51936086,4.10695435" id="Fill-5" fill="#E4E6EF"></path>
                    <g transform="translate(69.225491, 9.485669)">
                        <mask id="mask-8" fill="white">
                            <use xlink:href="#path-7"></use>
                        </mask>
                        <g id="Clip-8"></g>
                        <path d="M8.15768034,4.47004246 C7.92725244,6.6667657 5.92399489,8.26438259 3.68231771,8.03922825 C1.44064054,7.81342129 -0.18967013,5.85033647 0.0400917902,3.65361323 C0.270519687,1.45689 2.27377724,-0.140726903 4.51545442,0.0844274399 C6.75646561,0.310234404 8.38744226,2.27331922 8.15768034,4.47004246" id="Fill-7" fill="#E4E6EF" mask="url(#mask-8)"></path>
                    </g>
                    <polygon id="Fill-9" fill="#E4E6EF" points="28.4957979 18.9713381 28.4038808 18.9141832 4.11240539 3.69701043 4.30574829 3.38773895 28.5059405 18.5483919 53.0173831 4.80772052 53.0978898 4.83947324 74.023297 13.0653325 73.8901757 13.4038165 53.0446413 5.20970993"></polygon>
                </g>
                <g id="编组" transform="translate(48.000000, 70.000000)">
                    <polygon id="Fill-1" fill="#CED0DB" points="21.8576861 0.241393545 13.2771945 27.2774705 18.4648293 27.2774705 27.046137 0.241393545"></polygon>
                    <g transform="translate(0.000000, 3.138116)">
                        <g>
                            <mask id="mask-10" fill="white">
                                <use xlink:href="#path-9"></use>
                            </mask>
                            <g id="Clip-3"></g>
                            <path d="M9.62456077,0.274442515 L4.0265901,0.274442515 L0.498408532,0.274442515 C0.222989703,0.274442515 -0.000165914957,0.497451137 -0.000165914957,0.772688544 L-0.000165914957,4.29854605 L-0.000165914957,17.404655 L-0.000165914957,20.9305125 C-0.000165914957,21.2057499 0.222989703,21.4287585 0.498408532,21.4287585 L4.0265901,21.4287585 L9.62456077,21.4287585 C9.8999796,21.4287585 10.1231352,21.2057499 10.1231352,20.9305125 L10.1231352,17.902901 C10.1231352,17.6276636 9.8999796,17.404655 9.62456077,17.404655 L4.0265901,17.404655 L4.0265901,4.29854605 L9.62456077,4.29854605 C9.8999796,4.29854605 10.1231352,4.07553743 10.1231352,3.80112905 L10.1231352,0.772688544 C10.1231352,0.497451137 9.8999796,0.274442515 9.62456077,0.274442515" id="Fill-2" fill="#E4E6EF" mask="url(#mask-10)"></path>
                        </g>
                        <g transform="translate(30.528352, 0.000000)">
                            <mask id="mask-12" fill="white">
                                <use xlink:href="#path-11"></use>
                            </mask>
                            <g id="Clip-5"></g>
                            <path d="M9.64671041,0.274442515 L6.11852884,0.274442515 L0.520558179,0.274442515 C0.24513935,0.274442515 0.0219837319,0.497451137 0.0219837319,0.772688544 L0.0219837319,3.80112905 C0.0219837319,4.07553743 0.24513935,4.29854605 0.520558179,4.29854605 L6.11852884,4.29854605 L6.11852884,17.404655 L0.520558179,17.404655 C0.24513935,17.404655 0.0219837319,17.6276636 0.0219837319,17.902901 L0.0219837319,20.9305125 C0.0219837319,21.2057499 0.24513935,21.4287585 0.520558179,21.4287585 L6.11852884,21.4287585 L9.64671041,21.4287585 C9.92212924,21.4287585 10.1452849,21.2057499 10.1452849,20.9305125 L10.1452849,17.902901 L10.1452849,3.80112905 L10.1452849,0.772688544 C10.1452849,0.497451137 9.92212924,0.274442515 9.64671041,0.274442515" id="Fill-4" fill="#E4E6EF" mask="url(#mask-12)"></path>
                        </g>
                    </g>
                </g>
                <g id="编组-4" transform="translate(325.000000, 184.000000)">
                    <path d="M28.0840549,48.0397339 L15.9505134,48.0397339 L15.9505134,6.05142419 C15.9505134,2.70934032 18.6524716,4.61852778e-13 21.9855662,4.61852778e-13 L22.0489074,4.61852778e-13 C25.382002,4.61852778e-13 28.0840549,2.70934032 28.0840549,6.05142419 L28.0840549,48.0397339 Z" id="Fill-1" fill="#5BA02E"></path>
                    <path d="M34.4429037,58.2475755 L22.2108419,58.2475755 L22.2108419,36.2011291 C22.2108419,32.929341 24.8669195,30.2770609 28.1433919,30.2770609 L28.5104493,30.2770609 C31.7868262,30.2770609 34.4429037,32.929341 34.4429037,36.2011291 L34.4429037,58.2475755 Z" id="Fill-3" fill="#92C110"></path>
                    <path d="M16.2439826,47.8330222 L4.0119208,47.8330222 L4.0119208,24.0006553 C4.0119208,20.7292405 6.65732372,18.0771556 9.92049605,18.0771556 L10.3354073,18.0771556 C13.5985796,18.0771556 16.2439826,20.7292405 16.2439826,24.0006553 L16.2439826,47.8330222 Z" id="Fill-5" fill="#92C110"></path>
                    <path d="M2.37907044,83 C1.06512966,83 0,81.9856243 0,80.7342935 L0,49.2657065 C0,48.0143757 1.06512966,47 2.37907044,47 L35.6209296,47 C36.9348703,47 38,48.0143757 38,49.2657065 L38,80.7342935 C38,81.9856243 36.9348703,83 35.6209296,83 L2.37907044,83 Z" id="Fill-7" fill="#CAD5EE"></path>
                    <path d="M20.1224412,9.15039558 C20.1224412,9.80775093 19.5881573,10.3406302 18.9290693,10.3406302 C18.2699813,10.3406302 17.7356974,9.80775093 17.7356974,9.15039558 C17.7356974,8.49304022 18.2699813,7.96016091 18.9290693,7.96016091 C19.5881573,7.96016091 20.1224412,8.49304022 20.1224412,9.15039558" id="Fill-9" fill="#92C110"></path>
                    <path d="M26.3876435,21.3503009 C26.3876435,22.0076563 25.8533597,22.5405356 25.1942716,22.5405356 C24.5351836,22.5405356 24.0008998,22.0076563 24.0008998,21.3503009 C24.0008998,20.6929455 24.5351836,20.1600662 25.1942716,20.1600662 C25.8533597,20.1600662 26.3876435,20.6929455 26.3876435,21.3503009" id="Fill-11" fill="#92C110"></path>
                    <path d="M7.89037941,27.3014742 C7.89037941,27.9588296 7.35609554,28.4917089 6.69700753,28.4917089 C6.03791952,28.4917089 5.50363565,27.9588296 5.50363565,27.3014742 C5.50363565,26.6441189 6.03791952,26.1112396 6.69700753,26.1112396 C7.35609554,26.1112396 7.89037941,26.6441189 7.89037941,27.3014742" id="Fill-13" fill="#5BA02E"></path>
                    <path d="M13.8572388,39.5013796 C13.8572388,40.1587349 13.3229549,40.6916142 12.6638669,40.6916142 C12.0047789,40.6916142 11.470495,40.1587349 11.470495,39.5013796 C11.470495,38.8440242 12.0047789,38.3111449 12.6638669,38.3111449 C13.3229549,38.3111449 13.8572388,38.8440242 13.8572388,39.5013796" id="Fill-15" fill="#5BA02E"></path>
                </g>
                <g id="编组" opacity="0.567708333" transform="translate(360.000000, 158.000000)">
                    <g>
                        <mask id="mask-14" fill="white">
                            <use xlink:href="#path-13"></use>
                        </mask>
                        <g id="Clip-2"></g>
                        <path d="M4.54920668,9.22289531 L34.1049548,9.210333 C36.6158694,9.20919101 38.6508516,7.17074877 38.6497108,4.65838297 C38.6485689,2.14601718 36.6124454,0.109858904 34.1015308,0.111000409 L4.54464138,0.123562718 C2.03372673,0.124704702 -0.00125545732,2.16314695 -0.000114612335,4.67551274 C0.00102719236,7.18787853 2.03715071,9.22403681 4.54920668,9.22289531" id="Fill-1" fill="#E4E6EF" mask="url(#mask-14)"></path>
                    </g>
                    <g transform="translate(11.204273, 17.988733)">
                        <mask id="mask-16" fill="white">
                            <use xlink:href="#path-15"></use>
                        </mask>
                        <g id="Clip-4"></g>
                        <path d="M4.57454787,9.09843398 L34.1596681,9.08592315 C36.6730781,9.08478585 38.7100826,7.05469787 38.7089406,4.55262866 C38.7077977,2.05055945 36.6696507,0.0227460837 34.1562407,0.0238829098 L4.57112049,0.036393734 C2.05656806,0.0375310382 0.0195635271,2.06648171 0.0207055058,4.56968822 C0.0218484452,7.07175744 2.0611379,9.0995708 4.57454787,9.09843398" id="Fill-3" fill="#E4E6EF" mask="url(#mask-16)"></path>
                    </g>
                    <path d="M18.3094224,9.2759467 L18.3094224,9.27369078 L33.8826868,9.26692301 C31.3820116,9.26805097 29.357385,11.2814626 29.3585211,13.7629783 C29.3585211,16.244494 31.3865562,18.2556496 33.8860953,18.2545217 L18.3128309,18.2612895 L18.3128309,18.2601615 C20.7953276,18.2376023 22.7995035,16.2343423 22.7983673,13.7652342 C22.7972312,11.297254 20.790783,9.29625001 18.3094224,9.2759467" id="Fill-5" fill="#E4E6EF"></path>
                </g>
                <rect id="矩形" fill="#E5E3EA" x="0" y="267" width="438" height="1"></rect>
            </g>
        </g>
    </g>
</svg>