<svg width="28" height="27" xmlns="http://www.w3.org/2000/svg"><g fill="none" fill-rule="evenodd"><path d="M26.594 12.968c0 .912-.74 1.651-1.652 1.651H3.058a1.651 1.651 0 0 1-.852-3.065 1.65 1.65 0 0 1 .543-2.547 1.651 1.651 0 0 1 1.778-2.213A1.651 1.651 0 0 1 6.79 4.532a1.651 1.651 0 0 1 2.472-1.654 1.652 1.652 0 0 1 2.977-.786 1.652 1.652 0 0 1 3.11 0 1.652 1.652 0 0 1 2.977.785 1.651 1.651 0 0 1 2.472 1.654 1.651 1.651 0 0 1 2.263 2.262 1.651 1.651 0 0 1 1.778 2.213 1.65 1.65 0 0 1 .65 2.404 1.652 1.652 0 0 1 1.105 1.558z" stroke="#000" stroke-width=".8" fill="#FFF" stroke-linejoin="round"/><path fill="#000" d="M9.531 24.937h8.938V27H9.531z"/><path d="M1 13.794h26c-.42 6.909-6.08 12.38-13 12.38S1.42 20.704 1 13.795z" stroke="#000" stroke-width=".8" fill="#1890FF"/><path d="M8.313 8.016a.41.41 0 0 1-.407-.413.41.41 0 0 1 .407-.413.41.41 0 0 1 .406.413.41.41 0 0 1-.406.413zm-1.626 2.063a.41.41 0 0 1-.406-.412.41.41 0 0 1 .407-.413.41.41 0 0 1 .406.413.41.41 0 0 1-.407.412zm1.625 1.651a.41.41 0 0 1-.406-.413.41.41 0 0 1 .407-.412.41.41 0 0 1 .406.412.41.41 0 0 1-.406.413zM9.938 8.43a.41.41 0 0 1-.407-.413.41.41 0 0 1 .406-.413.41.41 0 0 1 .407.413.41.41 0 0 1-.406.413zm9.75 1.65a.41.41 0 0 1-.407-.412.41.41 0 0 1 .407-.413.41.41 0 0 1 .406.413.41.41 0 0 1-.407.412z" fill="#000"/></g></svg>