<svg xmlns="http://www.w3.org/2000/svg" width="32" height="32" viewBox="0 0 24 24"><path fill="currentColor" d="M12 18a6 6 0 1 1 0-12a6 6 0 0 1 0 12Zm0-2a4 4 0 1 0 0-8a4 4 0 0 0 0 8ZM11 1h2v3h-2V1Zm0 19h2v3h-2v-3ZM3.515 4.929l1.414-1.414L7.05 5.636L5.636 7.05L3.515 4.93ZM16.95 18.364l1.414-1.414l2.121 2.121l-1.414 1.414l-2.121-2.121Zm2.121-14.85l1.414 1.415l-2.121 2.121l-1.414-1.414l2.121-2.121ZM5.636 16.95l1.414 1.414l-2.121 2.121l-1.414-1.414l2.121-2.121ZM23 11v2h-3v-2h3ZM4 11v2H1v-2h3Z"/></svg>