<?xml version="1.0" encoding="UTF-8"?>
<svg width="16px" height="16px" viewBox="0 0 16 16" version="1.1" xmlns="http://www.w3.org/2000/svg" xmlns:xlink="http://www.w3.org/1999/xlink">
    <title>smile</title>
    <g id="页面-1" stroke="none" stroke-width="1" fill="none" fill-rule="evenodd">
        <g id="smile" fill="#000000" fill-rule="nonzero">
            <rect id="矩形" opacity="0" x="0" y="0" width="16" height="16"></rect>
            <path d="M4.5,6.578125 C4.5,6.99233856 4.83578644,7.328125 5.25,7.328125 C5.66421356,7.328125 6,6.99233856 6,6.578125 C6,6.16391144 5.66421356,5.828125 5.25,5.828125 C4.83578644,5.828125 4.5,6.16391144 4.5,6.578125 L4.5,6.578125 Z M10,6.578125 C10,6.99233856 10.3357864,7.328125 10.75,7.328125 C11.1642136,7.328125 11.5,6.99233856 11.5,6.578125 C11.5,6.16391144 11.1642136,5.828125 10.75,5.828125 C10.3357864,5.828125 10,6.16391144 10,6.578125 L10,6.578125 Z M8,1 C4.134375,1 1,4.134375 1,8 C1,11.865625 4.134375,15 8,15 C11.865625,15 15,11.865625 15,8 C15,4.134375 11.865625,1 8,1 Z M12.109375,12.109375 C11.575,12.64375 10.953125,13.0625 10.2609375,13.35625 C9.546875,13.659375 8.7859375,13.8125 8,13.8125 C7.2140625,13.8125 6.453125,13.659375 5.7375,13.35625 C5.0453125,13.0640625 4.4234375,12.64375 3.8890625,12.109375 C3.3546875,11.575 2.9359375,10.953125 2.6421875,10.2609375 C2.340625,9.546875 2.1875,8.7859375 2.1875,8 C2.1875,7.2140625 2.340625,6.453125 2.64375,5.7375 C2.9359375,5.0453125 3.35625,4.4234375 3.890625,3.8890625 C4.425,3.3546875 5.046875,2.9359375 5.7390625,2.6421875 C6.453125,2.340625 7.2140625,2.1875 8,2.1875 C8.7859375,2.1875 9.546875,2.340625 10.2625,2.64375 C10.9546875,2.9359375 11.5765625,3.35625 12.1109375,3.890625 C12.6453125,4.425 13.0640625,5.046875 13.3578125,5.7390625 C13.659375,6.453125 13.8125,7.2140625 13.8125,8 C13.8125,8.7859375 13.659375,9.546875 13.35625,10.2625 C13.0640625,10.9546875 12.64375,11.5765625 12.109375,12.109375 Z M10.375,8.328125 L9.6234375,8.328125 C9.5578125,8.328125 9.5015625,8.378125 9.496875,8.44375 C9.4375,9.2171875 8.7890625,9.828125 8,9.828125 C7.2109375,9.828125 6.5609375,9.2171875 6.503125,8.44375 C6.4984375,8.378125 6.4421875,8.328125 6.3765625,8.328125 L5.625,8.328125 C5.553125,8.328125 5.496875,8.3875 5.5,8.459375 C5.56875,9.7765625 6.6640625,10.828125 8,10.828125 C9.3359375,10.828125 10.43125,9.7765625 10.5,8.459375 C10.503125,8.3875 10.446875,8.328125 10.375,8.328125 Z" id="形状"></path>
        </g>
    </g>
</svg>